<svg width="20" height="20" viewBox="0 0 20 20" fill="none" xmlns="http://www.w3.org/2000/svg">
<path d="M15.767 20C13.6072 19.9947 11.8517 18.2306 11.8253 16.039V14H7.8836V16.02C7.87273 18.2265 6.10318 20.0074 3.92883 20C1.75447 19.9927 -0.00335064 18.1999 0.000249661 15.9934C0.00386104 13.7869 1.76753 12.0001 3.9419 12H5.91275V8.00003H3.9419C1.76753 8 0.00386104 6.21319 0.000249661 4.00666C-0.00335064 1.80013 1.75447 0.00739108 3.92883 2.25059e-05C6.10318 -0.00730078 7.87273 1.77352 7.8836 3.98003V6.00003H11.8253V4.00003C11.8253 1.79089 13.5901 2.25059e-05 15.767 2.25059e-05C17.9439 2.25059e-05 19.7087 1.79089 19.7087 4.00003C19.7087 6.20917 17.9439 8.00003 15.767 8.00003H13.7961V12H15.767C17.9439 12 19.7087 13.7909 19.7087 16C19.7087 18.2092 17.9439 20 15.767 20ZM13.7961 14V16C13.7961 17.1046 14.6785 18 15.767 18C16.8555 18 17.7378 17.1046 17.7378 16C17.7378 14.8955 16.8555 14 15.767 14H13.7961ZM3.9419 14C2.85343 14 1.97105 14.8955 1.97105 16C1.97105 17.1046 2.85343 18 3.9419 18C4.4663 18.0057 4.97085 17.7968 5.34167 17.4205C5.7125 17.0442 5.91834 16.5322 5.91275 16V14H3.9419ZM7.8836 8.00003V12H11.8253V8.00003H7.8836ZM15.767 2.00002C15.2426 1.99435 14.738 2.20324 14.3672 2.57955C13.9964 2.95586 13.7906 3.46787 13.7961 4.00003V6.00003H15.767C16.2914 6.0057 16.7959 5.79681 17.1668 5.4205C17.5376 5.04419 17.7434 4.53218 17.7378 4.00003C17.7434 3.46787 17.5376 2.95586 17.1668 2.57955C16.7959 2.20324 16.2914 1.99435 15.767 2.00002ZM3.9419 2.00002C3.4175 1.99435 2.91295 2.20324 2.54213 2.57955C2.1713 2.95586 1.96546 3.46787 1.97105 4.00003C1.96546 4.53218 2.1713 5.04419 2.54213 5.4205C2.91295 5.79681 3.4175 6.0057 3.9419 6.00003H5.91275V4.00003C5.91834 3.46787 5.7125 2.95586 5.34167 2.57955C4.97085 2.20324 4.4663 1.99435 3.9419 2.00002Z" fill="white"/>
</svg>
