<svg width="20" height="17" viewBox="0 0 20 17" fill="none" xmlns="http://www.w3.org/2000/svg">
<path d="M15.767 17.0001H0.985667C0.724126 17.0027 0.472609 16.898 0.288312 16.7097C0.104015 16.5214 0.00260483 16.2654 0.0071421 16H0.000244141V2C0.000244141 0.895431 0.882622 0 1.97109 0H7.88363C8.10373 0.00021299 8.31743 0.0751979 8.49065 0.213L10.7414 2H15.767C16.8555 2 17.7379 2.89543 17.7379 4V8H18.7233C19.0545 8.00004 19.3636 8.16895 19.5459 8.44959C19.7282 8.73024 19.7594 9.08505 19.6289 9.394L16.6726 16.394C16.5173 16.7616 16.1611 17.0001 15.767 17.0001ZM4.59232 10L2.48055 15H15.1176L17.2294 10H4.59232ZM1.97109 4V11.13L3.03633 8.606C3.19162 8.2384 3.54781 8.00005 3.94194 8H15.767V4H1.97109Z" fill="white"/>
</svg>
