<svg width="20" height="17" viewBox="0 0 20 17" fill="none" xmlns="http://www.w3.org/2000/svg">
<path d="M19.7085 4.49492V3.36484C19.7085 2.71836 19.1903 2.19297 18.5537 2.19297H13.1904V2.0625C13.1904 1.20117 12.4995 0.5 11.6507 0.5H1.5397C0.690544 0.5 -2.25546e-05 1.20117 -2.25546e-05 2.0625V13.0781C-2.25546e-05 13.9398 0.690544 14.6406 1.5397 14.6406H2.36076C2.62598 15.8652 3.7034 16.7844 4.9883 16.7844C6.2732 16.7844 7.35062 15.8652 7.61546 14.6406H13.2447C13.5095 15.8652 14.5869 16.7844 15.8718 16.7844C17.1702 16.7844 18.2565 15.8461 18.5075 14.6023C19.1942 14.4453 19.7085 13.8219 19.7085 13.0781V8.80077C19.7085 8.70511 19.6814 8.60074 19.6476 8.53906L18.31 5.66679H18.5537C19.1903 5.66679 19.7085 5.14101 19.7085 4.49492ZM4.9883 15.6125C4.14076 15.6125 3.4532 14.9125 3.4532 14.0547C3.4532 13.1995 4.13833 12.4973 4.9883 12.4973C5.83681 12.4973 6.52302 13.1982 6.52302 14.0547C6.52302 14.9099 5.8385 15.6125 4.9883 15.6125ZM11.8251 13.0781L7.61546 13.0782C6.89795 12 6.2732 11.3254 4.9883 11.3254C3.7034 11.3254 2.62598 12.2441 2.36076 13.4687H1.97083C1.75873 13.4687 1.47811 13.2937 1.47811 13.0781V2.5C1.47811 2.28476 1.75873 2.0625 1.97083 2.0625H11.4401C11.6522 2.0625 11.8251 2.28476 11.8251 2.5V13.0781ZM13.2447 5.66679H16.8105L17.9349 8.21484H13.2447C13.2447 7.83445 13.2447 6.04742 13.2447 5.66679ZM15.8718 15.6125C15.0259 15.6125 14.3371 14.9136 14.3371 14.0547C14.3371 13.1978 15.0241 12.4973 15.8718 12.4973C16.7208 12.4973 17.407 13.1984 17.407 14.0547C17.407 14.9114 16.7205 15.6125 15.8718 15.6125ZM18.31 9.38683L18.352 13C18.4074 12.9324 18.352 13.0949 18.352 13C17.9349 12 17.1071 11.3254 15.8718 11.3254C14.6366 11.3254 13.4248 12 13.2447 13.0781V9.38683H18.31ZM13.2447 4.49492V3.5H18.2303V4.5C17.702 4.5 13.7723 4.49492 13.2447 4.49492Z" fill="white"/>
</svg>
