<svg width="19" height="20" viewBox="0 0 19 20" fill="none" xmlns="http://www.w3.org/2000/svg">
<path d="M17.9995 10.2591C17.9202 10.0945 17.9202 9.90564 17.9995 9.74104L18.7346 8.21507C19.1438 7.36542 18.8196 6.35273 17.9963 5.90949L16.5178 5.1134C16.3583 5.02755 16.249 4.87473 16.2177 4.69431L15.9286 3.02131C15.7676 2.08983 14.9185 1.46389 13.9959 1.59635L12.3387 1.83424C12.1598 1.85987 11.9829 1.80151 11.8532 1.67413L10.6502 0.493196C9.98042 -0.164379 8.93111 -0.164418 8.26133 0.493196L7.05835 1.67424C6.92855 1.80167 6.75167 1.85991 6.57284 1.83436L4.9156 1.59647C3.99273 1.46393 3.14396 2.08994 2.98295 3.02142L2.69379 4.69434C2.66257 4.87481 2.55321 5.02759 2.39374 5.11348L0.915222 5.90957C0.0920116 6.35277 -0.232253 7.36554 0.177004 8.21519L0.912027 9.74111C0.991322 9.90576 0.991322 10.0946 0.912027 10.2592L0.176965 11.7851C-0.232291 12.6348 0.091973 13.6475 0.915183 14.0907L2.3937 14.8868C2.55321 14.9726 2.66257 15.1255 2.69379 15.3059L2.98295 16.9789C3.12953 17.8269 3.84604 18.4215 4.66951 18.4215C4.75062 18.4215 4.83292 18.4157 4.91564 18.4038L6.57288 18.1659C6.7516 18.1402 6.92859 18.1986 7.05839 18.326L8.26133 19.507C8.59629 19.8358 9.02595 20.0002 9.45577 20.0001C9.88546 20.0001 10.3154 19.8357 10.6502 19.507L11.8532 18.326C11.983 18.1986 12.1599 18.1404 12.3387 18.1659L13.9959 18.4038C14.9189 18.5363 15.7676 17.9103 15.9286 16.9788L16.2178 15.3059C16.249 15.1255 16.3584 14.9727 16.5178 14.8868L17.9963 14.0907C18.8196 13.6475 19.1438 12.6347 18.7346 11.7851L17.9995 10.2591ZM17.4636 13.0717L15.9851 13.8678C15.5137 14.1216 15.1904 14.5731 15.0982 15.1066L14.809 16.7795C14.7545 17.0947 14.4674 17.3063 14.1551 17.2616L12.4979 17.0237C11.9694 16.9478 11.4464 17.1204 11.0628 17.4969L9.85986 18.6778C9.63329 18.9002 9.27827 18.9002 9.05163 18.6778L7.84868 17.4969C7.5245 17.1786 7.10069 17.0062 6.65825 17.0062C6.57719 17.0062 6.49547 17.0119 6.41363 17.0237L4.75639 17.2616C4.44437 17.3063 4.15702 17.0946 4.10251 16.7795L3.81332 15.1065C3.72109 14.573 3.39782 14.1215 2.9264 13.8677L1.44789 13.0716C1.16935 12.9217 1.05965 12.5791 1.19811 12.2916L1.93317 10.7656C2.16751 10.2791 2.16751 9.72104 1.93317 9.23448L1.19811 7.70851C1.05965 7.42105 1.16935 7.07843 1.44789 6.92847L2.9264 6.13238C3.39778 5.87852 3.72109 5.42704 3.81328 4.8936L4.10244 3.22064C4.15694 2.90549 4.44402 2.69377 4.75632 2.73854L6.41355 2.97642C6.94187 3.05232 7.46503 2.87978 7.84861 2.50326L9.05159 1.32233C9.27816 1.09991 9.63318 1.09991 9.85982 1.32233L11.0628 2.50326C11.4463 2.87982 11.9694 3.05232 12.4978 2.97642L14.1551 2.73854C14.4671 2.69373 14.7545 2.90549 14.8089 3.22064L15.0981 4.89364C15.1903 5.42707 15.5136 5.8786 15.985 6.13238L17.4635 6.92847C17.7421 7.07843 17.8518 7.42105 17.7133 7.70851L16.9782 9.23444C16.7439 9.72096 16.7439 10.2791 16.9782 10.7656L17.7133 12.2915C17.8518 12.5791 17.7421 12.9217 17.4636 13.0717Z" fill="white"/>
<path d="M13.6086 5.78562C13.3867 5.56039 13.0268 5.56039 12.8048 5.78562L5.30294 13.3985C5.08099 13.6237 5.08099 13.9889 5.30294 14.2141C5.41391 14.3267 5.55938 14.3831 5.70481 14.3831C5.85023 14.3831 5.99574 14.3268 6.10667 14.2141L13.6085 6.60132C13.8306 6.37605 13.8306 6.0109 13.6086 5.78562Z" fill="white"/>
<path d="M7.18235 4.80908C6.03326 4.80908 5.09839 5.75779 5.09839 6.92389C5.09839 8.08998 6.03326 9.0387 7.18235 9.0387C8.33144 9.0387 9.26631 8.08998 9.26631 6.92389C9.26631 5.75779 8.33144 4.80908 7.18235 4.80908ZM7.18235 7.88514C6.66004 7.88514 6.23512 7.45393 6.23512 6.92385C6.23512 6.39381 6.66004 5.9626 7.18235 5.9626C7.70466 5.9626 8.12962 6.39381 8.12962 6.92385C8.12958 7.45393 7.70466 7.88514 7.18235 7.88514Z" fill="white"/>
<path d="M11.7292 10.9614C10.5801 10.9614 9.64526 11.9101 9.64526 13.0762C9.64526 14.2423 10.5801 15.191 11.7292 15.191C12.8783 15.191 13.8132 14.2423 13.8132 13.0762C13.8132 11.9101 12.8783 10.9614 11.7292 10.9614ZM11.7292 14.0375C11.2069 14.0375 10.782 13.6063 10.782 13.0762C10.782 12.5462 11.2069 12.115 11.7292 12.115C12.2515 12.115 12.6765 12.5462 12.6765 13.0762C12.6765 13.6063 12.2515 14.0375 11.7292 14.0375Z" fill="white"/>
</svg>
