<svg width="20" height="16" viewBox="0 0 20 16" fill="none" xmlns="http://www.w3.org/2000/svg">
<path d="M2.02371 0.382812H18.2678C19.2217 0.382812 20 1.17172 20 2.14062V13.8594C20 14.825 19.2252 15.6172 18.2678 15.6172H2.02371C1.07216 15.6172 0.291519 14.8309 0.291519 13.8594V2.14062C0.291519 1.175 1.06631 0.382812 2.02371 0.382812ZM2.26291 1.55469L10.109 9.51691L18.023 1.55469H2.26291ZM18.8452 13.6167V2.3777L13.2838 7.97301L18.8452 13.6167ZM18.0287 14.4453L12.4637 8.79805L10.5138 10.7598C10.288 10.987 9.92377 10.9862 9.69897 10.758L7.79768 8.82863L2.26287 14.4453H18.0287ZM1.44631 13.6167L6.98112 8L1.44631 2.38328V13.6167Z" fill="white"/>
</svg>
