<svg width="20" height="20" viewBox="0 0 20 20" fill="none" xmlns="http://www.w3.org/2000/svg">
<path d="M9.85448 20C4.41214 20 0.000244141 15.5228 0.000244141 10C0.000244141 4.47715 4.41214 0 9.85448 0C15.2968 0 19.7087 4.47715 19.7087 10C19.7028 15.5203 15.2944 19.9939 9.85448 20ZM1.97109 10.172C2.01772 14.5732 5.55913 18.1095 9.8964 18.086C14.2337 18.0622 17.7374 14.4875 17.7374 10.086C17.7374 5.68451 14.2337 2.10977 9.8964 2.086C5.55913 2.06246 2.01772 5.59876 1.97109 10V10.172ZM11.8253 15H8.86906V11H7.88364V9H10.8399V13H11.8253V15ZM10.8399 7H8.86906V5H10.8399V7Z" fill="white"/>
</svg>
