<svg width="16" height="19" viewBox="0 0 16 19" fill="none" xmlns="http://www.w3.org/2000/svg">
<path d="M14.7814 18.5863H0.985426C0.44119 18.5863 0 18.1386 0 17.5863V8.00029C0 7.73509 0.103914 7.48078 0.28873 7.29329L7.18671 0.293287C7.37154 0.10551 7.62236 0 7.8839 0C8.14544 0 8.39625 0.10551 8.58109 0.293287L15.4791 7.29329C15.6641 7.48057 15.7677 7.73511 15.7668 8.00029V17.5863C15.7668 18.1386 15.3256 18.5863 14.7814 18.5863ZM5.91255 11.5863H9.85426V16.5863H13.796V8.41429L7.8834 2.41429L1.97085 8.41429V16.5863H5.91255V11.5863Z" fill="white"/>
</svg>
