<svg width="20" height="18" viewBox="0 0 20 18" fill="none" xmlns="http://www.w3.org/2000/svg">
<path d="M6.89821 0C4.17704 0 1.97109 2.23858 1.97109 5C1.97109 7.76142 4.17704 10 6.89821 10C9.61938 10 11.8253 7.76142 11.8253 5C11.8253 2.23858 9.61938 0 6.89821 0ZM3.94194 5C3.94194 3.34315 5.26551 2 6.89821 2C8.53092 2 9.85448 3.34315 9.85448 5C9.85448 6.65685 8.53092 8 6.89821 8C5.26551 8 3.94194 6.65685 3.94194 5Z" fill="white"/>
<path d="M14.6914 5.21828C14.4141 5.07484 14.1074 5.00006 13.7962 5.00006V3.00006C14.4186 3.00006 15.0321 3.14956 15.5866 3.43645C15.6477 3.46805 15.7078 3.50121 15.767 3.5359C16.2453 3.81614 16.661 4.19569 16.9863 4.65055C17.3519 5.16172 17.593 5.75347 17.6898 6.37737C17.7867 7.00126 17.7366 7.63958 17.5437 8.24005C17.3507 8.84053 17.0204 9.38611 16.5797 9.83213C16.1391 10.2782 15.6006 10.6119 15.0083 10.8062C14.4813 10.979 13.9251 11.037 13.3759 10.9772C13.308 10.9698 13.2401 10.9606 13.1724 10.9496C12.5583 10.8497 11.9762 10.6038 11.4737 10.2319L11.4726 10.2311L12.6344 8.61557C12.8858 8.80172 13.177 8.92477 13.4843 8.97474C13.7916 9.02471 14.1061 9.00014 14.4022 8.90302C14.6983 8.80591 14.9676 8.63903 15.1879 8.41602C15.4082 8.19302 15.5734 7.92024 15.6699 7.62001C15.7663 7.31978 15.7914 7.00063 15.7429 6.68869C15.6945 6.37675 15.574 6.08089 15.3912 5.82531C15.2084 5.56974 14.9686 5.36172 14.6914 5.21828Z" fill="white"/>
<path d="M17.736 18C17.736 17.475 17.6341 16.9551 17.4361 16.47C17.2381 15.9849 16.9479 15.5442 16.5821 15.1729C16.2162 14.8017 15.7819 14.5072 15.3039 14.3062C14.8259 14.1053 14.3136 14.0019 13.7962 14.0019V12C14.4683 12 15.1348 12.1163 15.767 12.3431C15.8651 12.3783 15.9624 12.4162 16.0588 12.4567C16.7762 12.7583 17.4279 13.2002 17.977 13.7574C18.526 14.3145 18.9615 14.9759 19.2587 15.7039C19.2986 15.8017 19.3359 15.9004 19.3706 16C19.5941 16.6416 19.7087 17.3179 19.7087 18H17.736Z" fill="white"/>
<path d="M13.7962 18H11.8253C11.8253 15.2386 9.61939 13 6.89821 13C4.17704 13 1.97109 15.2386 1.97109 18H0.000244141C0.000244141 14.134 3.08857 11 6.89821 11C10.7079 11 13.7962 14.134 13.7962 18Z" fill="white"/>
</svg>
