<svg width="18" height="18" viewBox="0 0 18 18" fill="none" xmlns="http://www.w3.org/2000/svg">
<path d="M15.767 18H1.97109C0.882623 18 0.000244141 17.1046 0.000244141 16V2C0.000244141 0.89543 0.882623 0 1.97109 0H15.767C16.8555 0 17.7379 0.89543 17.7379 2V16C17.7379 17.1046 16.8555 18 15.767 18ZM1.97109 2V16H15.767V2H1.97109ZM14.7816 14H2.95652L5.91279 10L6.89822 11L9.85449 7L14.7816 14ZM5.42008 8C4.60373 8 3.94194 7.32843 3.94194 6.5C3.94194 5.67157 4.60373 5 5.42008 5C6.23643 5 6.89822 5.67157 6.89822 6.5C6.89822 7.32843 6.23643 8 5.42008 8Z" fill="white"/>
</svg>
