<svg width="19" height="19" viewBox="0 0 19 19" fill="none" xmlns="http://www.w3.org/2000/svg">
<path d="M9.30831 18.906C9.83159 18.9076 10.3337 18.6966 10.7027 18.32L18.4225 10.485C18.8299 10.0728 19.0388 9.50005 18.994 8.91799L18.5013 2.352C18.4311 1.36438 17.6556 0.579619 16.6822 0.511L10.2119 0.011C10.1617 0 10.1104 0 10.0602 0C9.53807 0.00136024 9.03761 0.211979 8.66779 0.586L0.946991 8.41999C0.577213 8.79509 0.369461 9.30392 0.369461 9.83449C0.369461 10.3651 0.577213 10.8739 0.946991 11.249L7.91492 18.32C8.28364 18.6963 8.78537 18.9073 9.30831 18.906ZM10.0612 2L16.5364 2.5L17.0291 9.07099L9.30831 16.906L2.34136 9.83599L10.0612 2ZM13.4895 7.592C14.4297 7.5922 15.2392 6.91835 15.4228 5.98256C15.6064 5.04678 15.113 4.10968 14.2444 3.74438C13.3758 3.37908 12.3739 3.68731 11.8514 4.48058C11.3289 5.27385 11.4313 6.3312 12.0961 7.00599C12.4648 7.38231 12.9665 7.59332 13.4895 7.592Z" fill="white"/>
</svg>
