<svg width="38" height="42" viewBox="0 0 38 42" fill="none" xmlns="http://www.w3.org/2000/svg">
<path d="M0.65625 36.4173C0.293344 36.4173 0 36.124 0 35.7611C0 32.5035 2.64994 29.8535 5.90756 29.8535C6.27047 29.8535 6.56381 30.1469 6.56381 30.5098C6.56381 30.8727 6.27047 31.166 5.90756 31.166C3.37378 31.166 1.3125 33.2273 1.3125 35.7611C1.3125 36.124 1.01916 36.4173 0.65625 36.4173Z" fill="white"/>
<path d="M29.5312 36.417C29.1683 36.417 28.875 36.1236 28.875 35.7607C28.875 33.2283 26.8137 31.167 24.2812 31.167C23.9183 31.167 23.625 30.8736 23.625 30.5107C23.625 30.1478 23.9183 29.8545 24.2812 29.8545C27.5382 29.8545 30.1875 32.5038 30.1875 35.7607C30.1875 36.1236 29.8942 36.417 29.5312 36.417Z" fill="white"/>
<path d="M5.90771 31.1667C5.54546 31.1667 5.25146 30.8733 5.25146 30.5104C5.25146 30.1482 5.54481 29.8542 5.90771 29.8542L9.1883 29.8535C9.55055 29.8535 9.84455 30.1469 9.84455 30.5098C9.84455 30.872 9.55121 31.166 9.1883 31.166L5.90771 31.1667Z" fill="white"/>
<path d="M0.656906 41.6653C0.294656 41.6653 0.000656202 41.372 0.000656202 41.0091L0 35.7617C0 35.3995 0.293344 35.1055 0.65625 35.1055C1.0185 35.1055 1.3125 35.3988 1.3125 35.7617L1.31316 41.0091C1.31316 41.3713 1.01981 41.6653 0.656906 41.6653Z" fill="white"/>
<path d="M29.5312 41.665C29.1683 41.665 28.875 41.3717 28.875 41.0088V35.7607C28.875 35.3978 29.1683 35.1045 29.5312 35.1045C29.8942 35.1045 30.1875 35.3978 30.1875 35.7607V41.0088C30.1875 41.3717 29.8942 41.665 29.5312 41.665Z" fill="white"/>
<path d="M10.5 29.8534C10.1371 29.8534 9.84375 29.5601 9.84375 29.1972V26.75C9.84375 26.3871 10.1371 26.0938 10.5 26.0938C10.8629 26.0938 11.1562 26.3871 11.1562 26.75V29.1972C11.1562 29.5601 10.8629 29.8534 10.5 29.8534Z" fill="white"/>
<path d="M19.6875 29.8534C19.3246 29.8534 19.0312 29.5601 19.0312 29.1972V26.75C19.0312 26.3871 19.3246 26.0938 19.6875 26.0938C20.0504 26.0938 20.3438 26.3871 20.3438 26.75V29.1972C20.3438 29.5601 20.0504 29.8534 19.6875 29.8534Z" fill="white"/>
<path d="M15.0938 28.541C9.30431 28.541 4.59375 23.8305 4.59375 18.041C4.59375 17.6781 4.88709 17.3848 5.25 17.3848C5.61291 17.3848 5.90625 17.6781 5.90625 18.041C5.90625 23.1073 10.0275 27.2285 15.0938 27.2285C20.16 27.2285 24.2812 23.1073 24.2812 18.041C24.2812 17.6781 24.5746 17.3848 24.9375 17.3848C25.3004 17.3848 25.5938 17.6781 25.5938 18.041C25.5938 23.8305 20.8832 28.541 15.0938 28.541Z" fill="white"/>
<path d="M5.25 18.6972C5.24935 18.6972 5.24869 18.6972 5.24804 18.6972C4.88513 18.6959 4.59244 18.4012 4.59375 18.039L4.60425 14.7676C4.60557 14.4053 4.89891 14.1133 5.26051 14.1133H5.26247C5.62538 14.1146 5.91807 14.4093 5.91676 14.7715L5.90625 18.0429C5.90494 18.4052 5.6116 18.6972 5.25 18.6972Z" fill="white"/>
<path d="M24.9375 18.6972C24.5746 18.6972 24.2812 18.4038 24.2812 18.0409V14.7695C24.2812 14.4066 24.5746 14.1133 24.9375 14.1133C25.3004 14.1133 25.5938 14.4066 25.5938 14.7695V18.0409C25.5938 18.4038 25.3004 18.6972 24.9375 18.6972Z" fill="white"/>
<path d="M11.5216 32.4798C11.2899 32.4798 11.0662 32.3571 10.9461 32.1406C10.7709 31.8229 10.8864 31.4233 11.204 31.2487L14.7759 29.2787C15.0936 29.1041 15.4926 29.2196 15.6678 29.5366C15.843 29.8542 15.7275 30.2538 15.4099 30.4284L11.8379 32.3985C11.7382 32.4536 11.6292 32.4798 11.5216 32.4798Z" fill="white"/>
<path d="M18.6651 32.4794C18.5581 32.4794 18.4492 32.4532 18.3488 32.398L14.7768 30.428C14.4598 30.2528 14.3443 29.8538 14.5189 29.5361C14.6948 29.2198 15.0931 29.1043 15.4107 29.2782L18.9827 31.2483C19.2997 31.4235 19.4152 31.8225 19.2406 32.1401C19.1212 32.3574 18.8967 32.4794 18.6651 32.4794Z" fill="white"/>
<path d="M7.87516 32.48C7.70716 32.48 7.53916 32.4157 7.4112 32.2877C7.1546 32.0311 7.1546 31.6164 7.4112 31.3598L10.0362 28.7335C10.2928 28.4769 10.7075 28.4769 10.9641 28.7335C11.2207 28.9901 11.2207 29.4048 10.9641 29.6614L8.33913 32.2877C8.21116 32.4163 8.04316 32.48 7.87516 32.48Z" fill="white"/>
<path d="M10.5002 35.1033C10.3322 35.1033 10.1642 35.039 10.0362 34.9111L7.4112 32.2874C7.1546 32.0308 7.1546 31.616 7.4112 31.3594C7.66779 31.1028 8.08254 31.1028 8.33913 31.3594L10.9641 33.9831C11.2207 34.2397 11.2207 34.6545 10.9641 34.9111C10.8362 35.0397 10.6682 35.1033 10.5002 35.1033Z" fill="white"/>
<path d="M9.18766 36.4162C9.01966 36.4162 8.85166 36.3519 8.7237 36.2239C8.4671 35.9673 8.4671 35.5526 8.7237 35.296L10.0362 33.9835C10.2928 33.7269 10.7075 33.7269 10.9641 33.9835C11.2207 34.2401 11.2207 34.6548 10.9641 34.9114L9.65163 36.2239C9.52366 36.3525 9.35566 36.4162 9.18766 36.4162Z" fill="white"/>
<path d="M13.1259 41.6658C12.9258 41.6658 12.7295 41.5752 12.6003 41.4033L8.66275 36.1533C8.44487 35.8639 8.50394 35.4524 8.794 35.2352C9.08341 35.0173 9.49422 35.0757 9.71209 35.3665L13.6496 40.6165C13.8675 40.9059 13.8084 41.3173 13.5183 41.5346C13.4009 41.6231 13.2631 41.6658 13.1259 41.6658Z" fill="white"/>
<path d="M15.0939 41.6661C14.8314 41.6661 14.5833 41.5073 14.4822 41.2475L9.88849 29.4349C9.75724 29.097 9.92459 28.717 10.2619 28.5858C10.5992 28.4545 10.9805 28.6219 11.1111 28.9592L15.7048 40.7717C15.8361 41.1096 15.6687 41.4896 15.3314 41.6209C15.2533 41.6524 15.1733 41.6661 15.0939 41.6661Z" fill="white"/>
<path d="M22.3127 32.48C22.1447 32.48 21.9767 32.4157 21.8487 32.2877L19.2237 29.6614C18.9671 29.4048 18.9671 28.9901 19.2237 28.7335C19.4803 28.4769 19.895 28.4769 20.1516 28.7335L22.7766 31.3598C23.0332 31.6164 23.0332 32.0311 22.7766 32.2877C22.6487 32.4163 22.4807 32.48 22.3127 32.48Z" fill="white"/>
<path d="M19.6877 35.1033C19.5197 35.1033 19.3517 35.039 19.2237 34.9111C18.9671 34.6545 18.9671 34.2397 19.2237 33.9831L21.8487 31.3594C22.1053 31.1028 22.52 31.1028 22.7766 31.3594C23.0332 31.616 23.0332 32.0308 22.7766 32.2874L20.1516 34.9111C20.0237 35.0397 19.8557 35.1033 19.6877 35.1033Z" fill="white"/>
<path d="M21.0002 36.4162C20.8322 36.4162 20.6642 36.3519 20.5362 36.2239L19.2237 34.9114C18.9671 34.6548 18.9671 34.2401 19.2237 33.9835C19.4803 33.7269 19.895 33.7269 20.1516 33.9835L21.4641 35.296C21.7207 35.5526 21.7207 35.9673 21.4641 36.2239C21.3362 36.3525 21.1682 36.4162 21.0002 36.4162Z" fill="white"/>
<path d="M17.0621 41.666C16.9249 41.666 16.7871 41.6234 16.669 41.5348C16.3789 41.3176 16.3199 40.9061 16.5377 40.6167L20.4753 35.3667C20.6931 35.0766 21.1039 35.0189 21.3933 35.2354C21.6834 35.4526 21.7425 35.8641 21.5246 36.1535L17.5871 41.4035C17.4585 41.5761 17.2622 41.666 17.0621 41.666Z" fill="white"/>
<path d="M15.094 41.6671C15.0146 41.6671 14.9346 41.6533 14.8565 41.6224C14.5185 41.4912 14.3512 41.1112 14.4831 40.7733L19.0768 28.9608C19.2081 28.6228 19.5894 28.4548 19.926 28.5874C20.264 28.7186 20.4313 29.0986 20.2994 29.4365L15.7057 41.249C15.6046 41.5083 15.3565 41.6671 15.094 41.6671Z" fill="white"/>
<path d="M24.2812 31.167H21C20.6371 31.167 20.3438 30.8736 20.3438 30.5107C20.3438 30.1478 20.6371 29.8545 21 29.8545H24.2812C24.6442 29.8545 24.9375 30.1478 24.9375 30.5107C24.9375 30.8736 24.6442 31.167 24.2812 31.167Z" fill="white"/>
<path d="M13.0523 36.4159C12.967 36.4159 12.8804 36.3995 12.7971 36.364C12.463 36.2229 12.3068 35.8377 12.4479 35.5043L13.8333 32.2244C13.9744 31.8897 14.3596 31.7342 14.693 31.8753C15.027 32.0164 15.1832 32.4016 15.0421 32.735L13.6568 36.0149C13.5504 36.2656 13.3076 36.4159 13.0523 36.4159Z" fill="white"/>
<path d="M17.1354 36.4161C16.8795 36.4161 16.6367 36.2658 16.531 36.0152L15.1457 32.7339C15.0046 32.3999 15.1608 32.0153 15.4948 31.8742C15.8282 31.7331 16.2134 31.8893 16.3545 32.2233L17.7399 35.5046C17.8809 35.8386 17.7248 36.2232 17.3907 36.3643C17.3074 36.3997 17.2208 36.4161 17.1354 36.4161Z" fill="white"/>
<path d="M15.75 33.1357H14.4375C14.0746 33.1357 13.7812 32.8424 13.7812 32.4795C13.7812 32.1166 14.0746 31.8232 14.4375 31.8232H15.75C16.1129 31.8232 16.4062 32.1166 16.4062 32.4795C16.4062 32.8424 16.1129 33.1357 15.75 33.1357Z" fill="white"/>
<path d="M15.7503 33.1358C15.6 33.1358 15.4484 33.0847 15.325 32.979C15.0487 32.7447 15.0159 32.33 15.2515 32.0544L16.564 30.5135C16.7989 30.2365 17.213 30.2037 17.4887 30.44C17.765 30.6743 17.7978 31.089 17.5622 31.3646L16.2497 32.9055C16.1197 33.0578 15.9353 33.1358 15.7503 33.1358Z" fill="white"/>
<path d="M14.4377 33.1362C14.2526 33.1362 14.0682 33.0581 13.9382 32.9052L12.6258 31.3644C12.3908 31.0887 12.423 30.674 12.6993 30.4397C12.9755 30.2041 13.3896 30.2363 13.6239 30.5132L14.9364 32.0541C15.1713 32.3297 15.1392 32.7445 14.8629 32.9787C14.7395 33.085 14.5879 33.1362 14.4377 33.1362Z" fill="white"/>
<path d="M24.9379 12.7899C24.575 12.7899 24.2817 12.4965 24.2817 12.1336C24.2817 8.01827 21.5156 4.37805 17.5551 3.27948C17.206 3.18302 17.0012 2.82077 17.0984 2.47164C17.1955 2.12252 17.5571 1.91908 17.9062 2.01489C22.4324 3.2703 25.5942 7.43158 25.5942 12.1343C25.5942 12.4965 25.3008 12.7899 24.9379 12.7899Z" fill="white"/>
<path d="M5.25 12.789C4.88709 12.789 4.59375 12.4957 4.59375 12.1328C4.59375 7.41761 7.76475 3.25436 12.306 2.00748C12.6545 1.91036 13.0167 2.11576 13.1125 2.4662C13.2083 2.81532 13.0036 3.17692 12.6538 3.27273C8.68088 4.36407 5.90691 8.00757 5.90691 12.1328C5.90625 12.4957 5.61291 12.789 5.25 12.789Z" fill="white"/>
<path d="M17.7306 2.00267C17.6722 2.00267 17.6131 1.9948 17.5547 1.97905C15.964 1.53805 14.2374 1.53805 12.6519 1.97248C12.3067 2.06698 11.9418 1.86355 11.8454 1.51377C11.7495 1.16464 11.9543 0.803047 12.3041 0.707234C14.116 0.207172 16.0874 0.209797 17.9039 0.713797C18.253 0.810266 18.4584 1.17186 18.3613 1.52098C18.2819 1.81236 18.018 2.00267 17.7306 2.00267Z" fill="white"/>
<path d="M25.6038 15.4261H4.60449C4.24159 15.4261 3.94824 15.1328 3.94824 14.7699V12.1436C3.94824 11.7806 4.24159 11.4873 4.60449 11.4873H25.6038C25.9667 11.4873 26.2601 11.7806 26.2601 12.1436V14.7699C26.2601 15.1328 25.9667 15.4261 25.6038 15.4261ZM5.26074 14.1136H24.9476V12.7998H5.26074V14.1136Z" fill="white"/>
<path d="M12.479 5.5825C12.1161 5.5825 11.8228 5.28916 11.8228 4.92625V1.33984C11.8228 0.976938 12.1161 0.683594 12.479 0.683594C12.8419 0.683594 13.1353 0.976938 13.1353 1.33984V4.92625C13.1353 5.28916 12.8419 5.5825 12.479 5.5825Z" fill="white"/>
<path d="M17.73 5.58277C17.3671 5.58277 17.0737 5.28943 17.0737 4.92652V1.34668C17.0737 0.983773 17.3671 0.69043 17.73 0.69043C18.0929 0.69043 18.3862 0.983773 18.3862 1.34668V4.92652C18.3862 5.28943 18.0929 5.58277 17.73 5.58277Z" fill="white"/>
<path d="M33.4609 29.2012C30.9285 29.2012 28.8672 27.1399 28.8672 24.6074C28.8672 22.075 30.9285 20.0137 33.4609 20.0137C33.8238 20.0137 34.1172 20.307 34.1172 20.6699C34.1172 21.0328 33.8238 21.3262 33.4609 21.3262C31.6517 21.3262 30.1797 22.7981 30.1797 24.6074C30.1797 26.4167 31.6517 27.8887 33.4609 27.8887C33.8238 27.8887 34.1172 28.182 34.1172 28.5449C34.1172 28.9078 33.8238 29.2012 33.4609 29.2012Z" fill="white"/>
<path d="M33.7891 27.2324C33.4262 27.2324 33.1328 26.9391 33.1328 26.5762C33.1328 26.2133 33.4262 25.9199 33.7891 25.9199C35.0556 25.9199 36.0859 24.8896 36.0859 23.623C36.0859 22.3565 35.0556 21.3262 33.7891 21.3262C33.4262 21.3262 33.1328 21.0328 33.1328 20.6699C33.1328 20.307 33.4262 20.0137 33.7891 20.0137C35.7788 20.0137 37.3984 21.6333 37.3984 23.623C37.3984 25.6128 35.7788 27.2324 33.7891 27.2324Z" fill="white"/>
<path d="M33.7891 25.2663C33.4262 25.2663 33.1328 24.973 33.1328 24.61C33.1328 24.2471 33.4262 23.9538 33.7891 23.9538C33.9702 23.9538 34.1185 23.8055 34.1185 23.6244C34.1185 23.4432 33.9702 23.2949 33.7891 23.2949C33.4262 23.2949 33.1328 23.0016 33.1328 22.6387C33.1328 22.2758 33.4262 21.9824 33.7891 21.9824C34.6947 21.9824 35.431 22.7187 35.431 23.6244C35.431 24.53 34.6947 25.2663 33.7891 25.2663Z" fill="white"/>
<path d="M33.4609 27.2324C32.0132 27.2324 30.8359 26.0551 30.8359 24.6074C30.8359 23.1597 32.0132 21.9824 33.4609 21.9824C33.8238 21.9824 34.1172 22.2758 34.1172 22.6387C34.1172 23.0016 33.8238 23.2949 33.4609 23.2949C32.7371 23.2949 32.1484 23.8836 32.1484 24.6074C32.1484 25.3313 32.7371 25.9199 33.4609 25.9199C33.8238 25.9199 34.1172 26.2133 34.1172 26.5762C34.1172 26.9391 33.8238 27.2324 33.4609 27.2324Z" fill="white"/>
<path d="M33.4609 41.6653C33.098 41.6653 32.8047 41.372 32.8047 41.0091V28.5449C32.8047 28.182 33.098 27.8887 33.4609 27.8887C33.8238 27.8887 34.1172 28.182 34.1172 28.5449V41.0091C34.1172 41.372 33.8238 41.6653 33.4609 41.6653Z" fill="white"/>
<path d="M29.5234 41.6647C29.1605 41.6647 28.8672 41.3713 28.8672 41.0084V24.6074C28.8672 24.2445 29.1605 23.9512 29.5234 23.9512C29.8863 23.9512 30.1797 24.2445 30.1797 24.6074V41.0084C30.1797 41.3713 29.8863 41.6647 29.5234 41.6647Z" fill="white"/>
<path d="M33.4619 27.2327C33.099 27.2327 32.8057 26.9394 32.8057 26.5765V24.6104C32.8057 24.2474 33.099 23.9541 33.4619 23.9541C33.8248 23.9541 34.1182 24.2474 34.1182 24.6104V26.5765C34.1182 26.9394 33.8248 27.2327 33.4619 27.2327Z" fill="white"/>
<path d="M33.7887 25.2666H33.4619C33.099 25.2666 32.8057 24.9733 32.8057 24.6104C32.8057 24.2474 33.099 23.9541 33.4619 23.9541H33.7887C34.1516 23.9541 34.445 24.2474 34.445 24.6104C34.445 24.9733 34.1516 25.2666 33.7887 25.2666Z" fill="white"/>
<path d="M33.7891 27.2324H33.4609C33.098 27.2324 32.8047 26.9391 32.8047 26.5762C32.8047 26.2133 33.098 25.9199 33.4609 25.9199H33.7891C34.152 25.9199 34.4453 26.2133 34.4453 26.5762C34.4453 26.9391 34.152 27.2324 33.7891 27.2324Z" fill="white"/>
<path d="M33.7891 23.2949H33.4609C33.098 23.2949 32.8047 23.0016 32.8047 22.6387C32.8047 22.2758 33.098 21.9824 33.4609 21.9824H33.7891C34.152 21.9824 34.4453 22.2758 34.4453 22.6387C34.4453 23.0016 34.152 23.2949 33.7891 23.2949Z" fill="white"/>
<path d="M36.7422 41.6647C36.3793 41.6647 36.0859 41.3713 36.0859 41.0084V23.623C36.0859 23.2601 36.3793 22.9668 36.7422 22.9668C37.1051 22.9668 37.3984 23.2601 37.3984 23.623V41.0084C37.3984 41.3713 37.1051 41.6647 36.7422 41.6647Z" fill="white"/>
<path d="M33.7891 21.3262H33.4609C33.098 21.3262 32.8047 21.0328 32.8047 20.6699C32.8047 20.307 33.098 20.0137 33.4609 20.0137H33.7891C34.152 20.0137 34.4453 20.307 34.4453 20.6699C34.4453 21.0328 34.152 21.3262 33.7891 21.3262Z" fill="white"/>
</svg>
