<svg width="40" height="40" viewBox="0 0 40 40" fill="none" xmlns="http://www.w3.org/2000/svg">
<path d="M16.7742 19.3545C12.505 19.3545 9.03223 22.8273 9.03223 27.0964C9.03223 31.3656 12.505 34.8384 16.7742 34.8384C21.0433 34.8384 24.5161 31.3656 24.5161 27.0964C24.5161 22.8273 21.0433 19.3545 16.7742 19.3545ZM16.7742 33.548C13.2166 33.548 10.3225 30.654 10.3225 27.0964C10.3225 23.5389 13.2166 20.6448 16.7742 20.6448C20.3317 20.6448 23.2258 23.5389 23.2258 27.0964C23.2258 30.654 20.3317 33.548 16.7742 33.548Z" fill="white"/>
<path d="M36.7742 23.871H32.2581V6.82964L25.4284 0H0V40H32.2581V30.3226H36.7742C38.5528 30.3226 40 28.8754 40 27.0968C40 25.3182 38.5528 23.871 36.7742 23.871ZM25.8064 2.20262L30.0554 6.45161H25.8064V2.20262ZM30.9677 38.7097H1.29032V1.29032H24.5161V7.74194H30.9677V23.871H29.6774V22.5806H28.3871V23.871H26.5735C25.2148 19.7555 21.3388 16.7742 16.7742 16.7742C11.0827 16.7742 6.45161 21.4053 6.45161 27.0968C6.45161 32.7882 11.0827 37.4194 16.7742 37.4194C21.3388 37.4194 25.2148 34.438 26.5735 30.3226H28.3871V31.6129H29.6774V30.3226H30.9677V38.7097ZM26.9084 25.1613H28.3871V29.0323H26.9084C27.0284 28.4044 27.0968 27.7586 27.0968 27.0968C27.0968 26.4349 27.0284 25.7891 26.9084 25.1613ZM25.8064 27.0968C25.8064 32.0776 21.755 36.129 16.7742 36.129C11.7934 36.129 7.74194 32.0776 7.74194 27.0968C7.74194 22.116 11.7934 18.0645 16.7742 18.0645C21.755 18.0645 25.8064 22.116 25.8064 27.0968ZM36.7742 29.0323H29.6774V25.1613H36.7742C37.8412 25.1613 38.7097 26.0298 38.7097 27.0968C38.7097 28.1637 37.8412 29.0323 36.7742 29.0323Z" fill="white"/>
<path d="M16.1289 26.4512H17.4192V27.7415H16.1289V26.4512Z" fill="white"/>
<path d="M18.7095 26.4512H19.9998V27.7415H18.7095V26.4512Z" fill="white"/>
<path d="M13.5483 26.4512H14.8387V27.7415H13.5483V26.4512Z" fill="white"/>
<path d="M4.51632 14.1934V15.4837H17.4195V14.1934H16.1292V6.31852L19.0847 7.68255L19.6253 6.51068L10.9679 2.51465L2.31055 6.51068L2.85112 7.68255L5.80664 6.31852V14.1934H4.51632ZM12.2583 14.1934H9.67761V10.3224H12.2583V14.1934ZM7.09696 5.72313L10.9679 3.93665L14.8389 5.72313V14.1934H13.5486V9.0321H8.38729V14.1934H7.09696V5.72313Z" fill="white"/>
<path d="M21.2905 9.03223H29.6776V10.3226H21.2905V9.03223Z" fill="white"/>
<path d="M21.2905 11.6133H29.6776V12.9036H21.2905V11.6133Z" fill="white"/>
<path d="M21.2905 14.1934H27.097V15.4837H21.2905V14.1934Z" fill="white"/>
<path d="M28.3872 14.1934H29.6775V15.4837H28.3872V14.1934Z" fill="white"/>
</svg>
