<svg width="40" height="38" viewBox="0 0 40 38" fill="none" xmlns="http://www.w3.org/2000/svg">
<path d="M0.743712 24.6228C0.604962 24.6228 0.466212 24.5772 0.349962 24.4828C0.0818366 24.2647 0.0418366 23.8709 0.258712 23.6034L9.39934 12.3534C9.61809 12.0859 10.0112 12.0459 10.2787 12.2622C10.5468 12.4803 10.5868 12.874 10.37 13.1415L1.22934 24.3915C1.10621 24.544 0.925587 24.6228 0.743712 24.6228Z" fill="white"/>
<path d="M19.0263 24.6224C18.8445 24.6224 18.6645 24.5437 18.5407 24.3918L9.40009 13.1418C9.18259 12.8737 9.22321 12.4799 9.49134 12.2624C9.76071 12.0455 10.1532 12.0862 10.3707 12.3537L19.5113 23.6037C19.7288 23.8718 19.6882 24.2655 19.4201 24.483C19.3045 24.5768 19.1651 24.6224 19.0263 24.6224Z" fill="white"/>
<path d="M1.75934 26.4973C1.62059 26.4973 1.48184 26.4516 1.36559 26.3573C1.09746 26.1391 1.05746 25.7454 1.27434 25.4779L9.39934 15.4779C9.61809 15.2098 10.0112 15.1698 10.2787 15.3866C10.5468 15.6048 10.5868 15.9985 10.37 16.266L2.24496 26.266C2.12184 26.4185 1.94121 26.4973 1.75934 26.4973Z" fill="white"/>
<path d="M18.0107 26.4969C17.8288 26.4969 17.6488 26.4181 17.5251 26.2663L9.40009 16.2663C9.18259 15.9982 9.22321 15.6044 9.49134 15.3869C9.76071 15.1694 10.1532 15.21 10.3707 15.4782L18.4957 25.4782C18.7132 25.7463 18.6726 26.14 18.4045 26.3575C18.2888 26.4513 18.1495 26.4969 18.0107 26.4969Z" fill="white"/>
<path d="M34.8833 24.6224C34.7014 24.6224 34.5214 24.5437 34.3976 24.3918L25.257 13.1418C25.0395 12.8737 25.0801 12.4799 25.3483 12.2624C25.617 12.0455 26.0101 12.0862 26.2276 12.3537L35.3683 23.6037C35.5858 23.8718 35.5451 24.2655 35.277 24.483C35.1608 24.5768 35.0214 24.6224 34.8833 24.6224Z" fill="white"/>
<path d="M25.742 13.3721H9.88574C9.54012 13.3721 9.26074 13.0927 9.26074 12.7471C9.26074 12.4014 9.54012 12.1221 9.88574 12.1221H25.742C26.0876 12.1221 26.367 12.4014 26.367 12.7471C26.367 13.0927 26.087 13.3721 25.742 13.3721Z" fill="white"/>
<path d="M34.8826 24.6221H19.0264C18.6807 24.6221 18.4014 24.3427 18.4014 23.9971C18.4014 23.6514 18.6807 23.3721 19.0264 23.3721H34.8826C35.2282 23.3721 35.5076 23.6514 35.5076 23.9971C35.5076 24.3427 35.2276 24.6221 34.8826 24.6221Z" fill="white"/>
<path d="M34.8827 26.4971H18.0103C17.6646 26.4971 17.3853 26.2177 17.3853 25.8721C17.3853 25.5264 17.6646 25.2471 18.0103 25.2471H34.8821C35.2277 25.2471 35.5071 25.5264 35.5071 25.8721C35.5071 26.2177 35.2277 26.4971 34.8827 26.4971Z" fill="white"/>
<path d="M34.8823 26.4971C34.5367 26.4971 34.2573 26.2177 34.2573 25.8721V23.9971C34.2573 23.6514 34.5367 23.3721 34.8823 23.3721C35.2279 23.3721 35.5073 23.6514 35.5073 23.9971V25.8721C35.5073 26.2177 35.2273 26.4971 34.8823 26.4971Z" fill="white"/>
<path d="M3.01025 37.7471C2.66463 37.7471 2.38525 37.4677 2.38525 37.1221V24.334C2.38525 23.9884 2.66463 23.709 3.01025 23.709C3.35588 23.709 3.63525 23.9884 3.63525 24.334V37.1221C3.63525 37.4677 3.35588 37.7471 3.01025 37.7471Z" fill="white"/>
<path d="M16.7603 37.7471C16.4146 37.7471 16.1353 37.4677 16.1353 37.1221V24.3096C16.1353 23.9639 16.4146 23.6846 16.7603 23.6846C17.1059 23.6846 17.3853 23.9639 17.3853 24.3096V37.1221C17.3853 37.4677 17.1059 37.7471 16.7603 37.7471Z" fill="white"/>
<path d="M34.2578 37.7471H3.01025C2.66463 37.7471 2.38525 37.4677 2.38525 37.1221C2.38525 36.7764 2.66463 36.4971 3.01025 36.4971H34.2571C34.6028 36.4971 34.8821 36.7764 34.8821 37.1221C34.8821 37.4677 34.6028 37.7471 34.2578 37.7471Z" fill="white"/>
<path d="M34.2573 37.7471C33.9117 37.7471 33.6323 37.4677 33.6323 37.1221V25.8721C33.6323 25.5264 33.9117 25.2471 34.2573 25.2471C34.6029 25.2471 34.8823 25.5264 34.8823 25.8721V37.1221C34.8823 37.4677 34.6023 37.7471 34.2573 37.7471Z" fill="white"/>
<path d="M1.76066 26.4971C1.53879 26.4971 1.32379 26.379 1.21066 26.1703L0.195036 24.2953C0.0300357 23.9915 0.143161 23.6121 0.446286 23.4484C0.749411 23.2846 1.12941 23.3965 1.29316 23.6996L2.30879 25.5746C2.47379 25.8784 2.36066 26.2578 2.05754 26.4215C1.96379 26.4728 1.86191 26.4971 1.76066 26.4971Z" fill="white"/>
<path d="M8.01025 37.7471C7.66463 37.7471 7.38525 37.4677 7.38525 37.1221V30.2471C7.38525 29.9014 7.66463 29.6221 8.01025 29.6221C8.35588 29.6221 8.63525 29.9014 8.63525 30.2471V37.1221C8.63525 37.4677 8.35588 37.7471 8.01025 37.7471Z" fill="white"/>
<path d="M11.7603 30.8721H8.01025C7.66463 30.8721 7.38525 30.5927 7.38525 30.2471C7.38525 29.9014 7.66463 29.6221 8.01025 29.6221H11.7603C12.1059 29.6221 12.3853 29.9014 12.3853 30.2471C12.3853 30.5927 12.1059 30.8721 11.7603 30.8721Z" fill="white"/>
<path d="M11.7603 37.7471C11.4146 37.7471 11.1353 37.4677 11.1353 37.1221V30.2471C11.1353 29.9014 11.4146 29.6221 11.7603 29.6221C12.1059 29.6221 12.3853 29.9014 12.3853 30.2471V37.1221C12.3853 37.4677 12.1059 37.7471 11.7603 37.7471Z" fill="white"/>
<path d="M9.88525 27.1221C8.5065 27.1221 7.38525 26.0008 7.38525 24.6221C7.38525 23.2433 8.5065 22.1221 9.88525 22.1221C11.264 22.1221 12.3853 23.2433 12.3853 24.6221C12.3853 26.0008 11.264 27.1221 9.88525 27.1221ZM9.88525 23.3721C9.19588 23.3721 8.63525 23.9327 8.63525 24.6221C8.63525 25.3114 9.19588 25.8721 9.88525 25.8721C10.5746 25.8721 11.1353 25.3114 11.1353 24.6221C11.1353 23.9327 10.5746 23.3721 9.88525 23.3721Z" fill="white"/>
<path d="M24.259 33.9971H19.8853C19.5396 33.9971 19.2603 33.7177 19.2603 33.3721V28.9971C19.2603 28.6514 19.5396 28.3721 19.8853 28.3721H24.259C24.6046 28.3721 24.884 28.6514 24.884 28.9971V33.3721C24.884 33.7177 24.6046 33.9971 24.259 33.9971ZM20.5103 32.7471H23.634V29.6221H20.5103V32.7471Z" fill="white"/>
<path d="M31.1325 33.9971H26.7588C26.4132 33.9971 26.1338 33.7177 26.1338 33.3721V28.9971C26.1338 28.6514 26.4132 28.3721 26.7588 28.3721H31.1325C31.4782 28.3721 31.7575 28.6514 31.7575 28.9971V33.3721C31.7575 33.7177 31.4775 33.9971 31.1325 33.9971ZM27.3832 32.7471H30.5069V29.6221H27.3832V32.7471Z" fill="white"/>
<path d="M34.2573 23.8408C33.9117 23.8408 33.6323 23.5614 33.6323 23.2158V3.36328C33.6323 3.01766 33.9117 2.73828 34.2573 2.73828C34.6029 2.73828 34.8823 3.01766 34.8823 3.36328V23.2158C34.8823 23.5614 34.6023 23.8408 34.2573 23.8408Z" fill="white"/>
<path d="M14.249 4.00098C13.9034 4.00098 13.624 3.7216 13.624 3.37598C13.624 1.65285 15.0259 0.250977 16.749 0.250977C17.0946 0.250977 17.374 0.530352 17.374 0.875977C17.374 1.2216 17.0946 1.50098 16.749 1.50098C15.7153 1.50098 14.874 2.34223 14.874 3.37598C14.874 3.7216 14.5946 4.00098 14.249 4.00098Z" fill="white"/>
<path d="M39.2495 4.00098C38.9039 4.00098 38.6245 3.7216 38.6245 3.37598C38.6245 2.34223 37.7833 1.50098 36.7495 1.50098C36.4039 1.50098 36.1245 1.2216 36.1245 0.875977C36.1245 0.530352 36.4039 0.250977 36.7495 0.250977C38.4726 0.250977 39.8745 1.65285 39.8745 3.37598C39.8745 3.7216 39.5951 4.00098 39.2495 4.00098Z" fill="white"/>
<path d="M39.2496 4.00098H34.2471C33.9014 4.00098 33.6221 3.7216 33.6221 3.37598C33.6221 3.03035 33.9014 2.75098 34.2471 2.75098H39.2496C39.5952 2.75098 39.8746 3.03035 39.8746 3.37598C39.8746 3.7216 39.5952 4.00098 39.2496 4.00098Z" fill="white"/>
<path d="M36.7496 1.50098H16.749C16.4034 1.50098 16.124 1.2216 16.124 0.875976C16.124 0.530351 16.4034 0.250977 16.749 0.250977H36.7496C37.0953 0.250977 37.3746 0.530351 37.3746 0.875976C37.3746 1.2216 37.0953 1.50098 36.7496 1.50098Z" fill="white"/>
<path d="M34.2471 4.00348C33.9014 4.00348 33.6221 3.7241 33.6221 3.37848C33.6221 1.6541 35.0252 0.250977 36.7496 0.250977C37.0952 0.250977 37.3746 0.530352 37.3746 0.875977C37.3746 1.2216 37.0952 1.50098 36.7496 1.50098C35.7146 1.50098 34.8721 2.34348 34.8721 3.37848C34.8721 3.7241 34.5927 4.00348 34.2471 4.00348Z" fill="white"/>
<path d="M14.249 13.3722C13.9034 13.3722 13.624 13.0929 13.624 12.7472V3.37598C13.624 3.03035 13.9034 2.75098 14.249 2.75098C14.5946 2.75098 14.874 3.03035 14.874 3.37598V12.7472C14.874 13.0929 14.5946 13.3722 14.249 13.3722Z" fill="white"/>
<path d="M39.2559 37.7489C38.9102 37.7489 38.6309 37.4695 38.6309 37.1239V8.37012C38.6309 8.02449 38.9102 7.74512 39.2559 7.74512C39.6015 7.74512 39.8809 8.02449 39.8809 8.37012V37.1239C39.8809 37.4695 39.6009 37.7489 39.2559 37.7489Z" fill="white"/>
<path d="M39.2559 37.749H36.7559C36.4102 37.749 36.1309 37.4696 36.1309 37.124C36.1309 36.7784 36.4102 36.499 36.7559 36.499H39.2559C39.6015 36.499 39.8809 36.7784 39.8809 37.124C39.8809 37.4696 39.6009 37.749 39.2559 37.749Z" fill="white"/>
<path d="M36.7559 37.7489C36.4102 37.7489 36.1309 37.4695 36.1309 37.1239V8.37012C36.1309 8.02449 36.4102 7.74512 36.7559 7.74512C37.1015 7.74512 37.3809 8.02449 37.3809 8.37012V37.1239C37.3809 37.4695 37.1009 37.7489 36.7559 37.7489Z" fill="white"/>
<path d="M36.7556 8.99615C36.6619 8.99615 36.5662 8.9749 36.4769 8.93052C36.1681 8.77615 36.0431 8.40052 36.1975 8.09177L37.4475 5.59178C37.6025 5.28303 37.9781 5.1599 38.2863 5.3124C38.595 5.46678 38.72 5.8424 38.5656 6.15115L37.3156 8.65115C37.205 8.8699 36.985 8.99615 36.7556 8.99615Z" fill="white"/>
<path d="M39.2565 8.99482C39.0272 8.99482 38.8065 8.86857 38.6965 8.6492L37.4465 6.1492C37.2921 5.84045 37.4171 5.46482 37.7259 5.31045C38.0346 5.15795 38.4096 5.28107 38.5646 5.58982L39.8146 8.08982C39.969 8.39857 39.844 8.7742 39.5353 8.92857C39.4453 8.97357 39.3503 8.99482 39.2565 8.99482Z" fill="white"/>
<path d="M39.2559 35.249H36.7559C36.4102 35.249 36.1309 34.9696 36.1309 34.624C36.1309 34.2784 36.4102 33.999 36.7559 33.999H39.2559C39.6015 33.999 39.8809 34.2784 39.8809 34.624C39.8809 34.9696 39.6009 35.249 39.2559 35.249Z" fill="white"/>
<path d="M39.2559 32.749H36.7559C36.4102 32.749 36.1309 32.4696 36.1309 32.124C36.1309 31.7784 36.4102 31.499 36.7559 31.499H39.2559C39.6015 31.499 39.8809 31.7784 39.8809 32.124C39.8809 32.4696 39.6009 32.749 39.2559 32.749Z" fill="white"/>
<path d="M30.4975 8.37207H18.0112C17.6656 8.37207 17.3862 8.0927 17.3862 7.74707C17.3862 7.40145 17.6656 7.12207 18.0112 7.12207H30.4975C30.8431 7.12207 31.1225 7.40145 31.1225 7.74707C31.1225 8.0927 30.8431 8.37207 30.4975 8.37207Z" fill="white"/>
<path d="M29.2477 9.62223C29.0877 9.62223 28.9277 9.56098 28.8058 9.4391C28.5615 9.19473 28.5615 8.79973 28.8058 8.55535L30.0558 7.30535C30.3002 7.06098 30.6952 7.06098 30.9396 7.30535C31.184 7.54973 31.184 7.94473 30.9396 8.1891L29.6896 9.4391C29.5677 9.56098 29.4077 9.62223 29.2477 9.62223Z" fill="white"/>
<path d="M30.4977 8.37223C30.3377 8.37223 30.1777 8.31098 30.0558 8.1891L28.8058 6.9391C28.5615 6.69473 28.5615 6.29973 28.8058 6.05535C29.0502 5.81098 29.4452 5.81098 29.6896 6.05535L30.9396 7.30535C31.184 7.54973 31.184 7.94473 30.9396 8.1891C30.8177 8.31098 30.6577 8.37223 30.4977 8.37223Z" fill="white"/>
<path d="M19.2025 9.56223C19.0425 9.56223 18.8825 9.50098 18.7606 9.3791L17.57 8.1891C17.3256 7.94473 17.3256 7.54973 17.57 7.30535C17.8144 7.06098 18.2094 7.06098 18.4537 7.30535L19.6444 8.49535C19.8887 8.73973 19.8887 9.13473 19.6444 9.3791C19.5219 9.5016 19.3619 9.56223 19.2025 9.56223Z" fill="white"/>
<path d="M18.0114 8.37207C17.8514 8.37207 17.6914 8.31082 17.5695 8.18895C17.3251 7.94457 17.3251 7.54957 17.5695 7.3052L18.7601 6.11395C19.0045 5.86957 19.3995 5.86957 19.6439 6.11395C19.8883 6.35832 19.8883 6.75332 19.6439 6.9977L18.4533 8.18895C18.3314 8.31082 18.1714 8.37207 18.0114 8.37207Z" fill="white"/>
</svg>
