<svg width="20" height="16" viewBox="0 0 20 16" fill="none" xmlns="http://www.w3.org/2000/svg">
<path d="M0.305979 8.71038L7.22226 15.6268C7.41969 15.8242 7.68283 15.9326 7.9634 15.9326C8.24429 15.9326 8.50727 15.8241 8.7047 15.6268L9.33265 14.9987C9.52992 14.8016 9.6386 14.5383 9.6386 14.2576C9.6386 13.977 9.52992 13.7048 9.33265 13.5077L5.29779 9.46397L18.1167 9.46398C18.6947 9.46398 19.1514 9.01151 19.1514 8.43338L19.1514 7.54541C19.1514 6.96729 18.6947 6.4692 18.1167 6.4692L5.25201 6.4692L9.33249 2.40289C9.52977 2.20546 9.63845 1.94933 9.63845 1.6686C9.63845 1.38818 9.52977 1.12831 9.33249 0.931035L8.70455 0.304957C8.50711 0.107527 8.24413 -6.29424e-05 7.96325 -6.29669e-05C7.68267 -6.29915e-05 7.41954 0.108928 7.22211 0.306358L0.305825 7.22264C0.107928 7.4207 -0.000907177 7.68508 -0.000129003 7.96612C-0.000752731 8.2481 0.107928 8.51263 0.305979 8.71038Z" fill="#8DD55A"/>
</svg>
