<svg width="20" height="16" viewBox="0 0 20 16" fill="none" xmlns="http://www.w3.org/2000/svg">
<path d="M18.8454 7.22224L11.9291 0.305799C11.7317 0.108369 11.4685 0 11.188 0C10.9071 0 10.6441 0.108524 10.4467 0.305799L9.81872 0.933901C9.62145 1.13102 9.51277 1.39431 9.51277 1.67504C9.51277 1.95562 9.62145 2.22778 9.81872 2.4249L13.8536 6.46864L1.03464 6.46864C0.456674 6.46864 0 6.92111 0 7.49923L0 8.3872C0 8.96532 0.456674 9.46342 1.03464 9.46342L13.8994 9.46342L9.81888 13.5297C9.6216 13.7272 9.51292 13.9833 9.51292 14.264C9.51292 14.5444 9.6216 14.8043 9.81888 15.0016L10.4468 15.6277C10.6443 15.8251 10.9072 15.9327 11.1881 15.9327C11.4687 15.9327 11.7318 15.8237 11.9293 15.6263L18.8455 8.70997C19.0434 8.51192 19.1523 8.24754 19.1515 7.9665C19.1521 7.68452 19.0434 7.41998 18.8454 7.22224Z" fill="#8DD55A"/>
</svg>
