<svg width="59" height="73" viewBox="0 0 59 73" fill="none" xmlns="http://www.w3.org/2000/svg">
<path d="M50.0415 19.8277H48.7648V19.7173C48.7648 18.4919 47.7678 17.4949 46.5424 17.4949H44.1002V17.305C44.1002 15.8199 43.1168 14.5604 41.7671 14.1431V6.88751C41.7671 5.01892 40.247 3.49895 38.3784 3.49895C36.5099 3.49895 34.9898 5.01906 34.9898 6.88751V8.05392C34.9898 8.75794 34.4172 9.33058 33.7131 9.33058C33.0093 9.33058 32.4365 8.75794 32.4365 8.05392L32.4363 3.38884C32.4362 1.52011 30.9161 0 29.0475 0C27.179 0 25.6588 1.52011 25.6588 3.3887L25.6589 8.05378C25.6589 8.7578 25.0863 9.33044 24.3824 9.33044C23.6785 9.33044 23.1058 8.7578 23.1058 8.05378L23.1055 3.3887C23.1056 1.52011 21.5855 0 19.7169 0C17.8483 0 16.3283 1.52011 16.3283 3.3887L16.3285 8.05378C16.3285 8.75766 15.7558 9.3303 15.0518 9.3303C14.348 9.3303 13.7753 8.75766 13.7753 8.0535L13.775 6.88737C13.775 5.01878 12.2549 3.49881 10.3863 3.49881C8.51773 3.49881 6.99776 5.01892 6.99776 6.88751V14.1435C5.64873 14.5613 4.66593 15.8205 4.66593 17.305V17.4949H2.22243C0.997025 17.4949 0 18.4918 0 19.7172V26.7152C0 27.9406 0.997025 28.9375 2.22243 28.9375H4.66593V29.1278C4.66593 30.9523 6.15027 32.4366 7.97479 32.4366H40.7912C42.6157 32.4366 44.1 30.9523 44.1 29.1278V28.9375H46.5422C47.7677 28.9375 48.7647 27.9405 48.7647 26.7152V26.605H50.0413C50.7452 26.605 51.3179 27.1776 51.3179 27.8815V33.7129C51.3179 34.4169 50.7452 34.9895 50.0413 34.9895H45.156C44.5728 34.9895 44.1 35.4623 44.1 36.0455C44.1 36.6287 44.5728 37.1016 45.156 37.1016H50.0413C51.9098 37.1016 53.4299 35.5815 53.4299 33.7129V27.8815C53.4299 26.0131 51.9098 24.4929 50.0413 24.4929H48.7647V21.9398H50.0413C53.3175 21.9398 55.9831 24.6053 55.9831 27.8816V33.713C55.9831 36.9895 53.3175 39.655 50.0413 39.655H29.0481C27.1796 39.655 25.6596 41.1751 25.6596 43.0434V45.4861H23.1065V43.0434C23.1065 39.7672 25.7719 37.1017 29.0482 37.1017H40.9321C41.5153 37.1017 41.9881 36.6289 41.9881 36.0457C41.9881 35.4625 41.5153 34.9897 40.9321 34.9897H29.0482C24.6073 34.9897 20.9944 38.6025 20.9944 43.0434V45.4861H18.5512C17.3258 45.4861 16.3288 46.483 16.3288 47.7084V50.0412C16.3288 51.2666 17.3258 52.2635 18.5512 52.2635H18.6616V59.5924C18.6616 60.1756 19.1344 60.6484 19.7176 60.6484C20.3008 60.6484 20.7736 60.1756 20.7736 59.5924V56.9284H27.9919V68.7025C27.9919 69.4065 27.4192 69.9792 26.7154 69.9792H22.0503C21.3464 69.9792 20.7736 69.4065 20.7736 68.7025V63.8165C20.7736 63.2333 20.3008 62.7605 19.7176 62.7605C19.1344 62.7605 18.6616 63.2333 18.6616 63.8165V68.7025C18.6616 70.5711 20.1817 72.0912 22.0503 72.0912H26.7154C28.5838 72.0912 30.1039 70.5711 30.1039 68.7025V52.2635H30.2143C31.4397 52.2635 32.4366 51.2666 32.4366 50.0412V47.7084C32.4366 46.483 31.4397 45.4861 30.2143 45.4861H27.7717V43.0434C27.7717 42.3396 28.3443 41.7671 29.0481 41.7671H50.0415C54.4823 41.7671 58.0953 38.1541 58.0953 33.713V27.8816C58.0953 23.4406 54.4823 19.8277 50.0415 19.8277ZM10.3865 5.61099C11.0903 5.61099 11.6631 6.18364 11.6631 6.88779L11.6634 8.05392C11.6634 9.92238 13.1835 11.4425 15.052 11.4425C16.9206 11.4425 18.4407 9.92238 18.4407 8.05378L18.4405 3.3887C18.4405 2.68469 19.0132 2.11204 19.7171 2.11204C20.4209 2.11204 20.9937 2.68469 20.9937 3.3887L20.994 8.05378C20.994 9.92238 22.5141 11.4425 24.3827 11.4425C26.2511 11.4425 27.7713 9.92238 27.7713 8.05378L27.7711 3.3887C27.7711 2.68469 28.3438 2.11204 29.0478 2.11204C29.7516 2.11204 30.3243 2.68469 30.3243 3.3887L30.3244 8.05378C30.3244 9.92238 31.8445 11.4425 33.7131 11.4425C35.5817 11.4425 37.1018 9.92238 37.1018 8.05378V6.88737C37.1018 6.1835 37.6745 5.61085 38.3784 5.61085C39.0824 5.61085 39.655 6.1835 39.655 6.88737V13.9959H9.10981V6.88751C9.10981 6.18364 9.68245 5.61099 10.3865 5.61099ZM25.7833 30.3246L29.8451 16.1081H34.6469L30.5851 30.3246H25.7833ZM18.7849 30.3246L22.8468 16.1081H27.6486L23.5867 30.3246H18.7849ZM11.7866 30.3246L15.8485 16.1081H20.6503L16.5884 30.3246H11.7866ZM2.22243 26.8255C2.16161 26.8255 2.11204 26.7759 2.11204 26.7152V19.7172C2.11204 19.6564 2.16161 19.6069 2.22243 19.6069H4.66593V26.8255H2.22243ZM6.77797 29.1278V17.305C6.77797 16.645 7.31485 16.1081 7.97479 16.1081H13.6518L9.58994 30.3246H7.97465C7.31485 30.3246 6.77797 29.7877 6.77797 29.1278ZM41.988 29.1278C41.988 29.7877 41.4511 30.3246 40.7912 30.3246H32.7816L36.8435 16.1081H40.7912C41.4511 16.1081 41.988 16.645 41.988 17.305V29.1278ZM46.6526 26.7152C46.6526 26.7761 46.6031 26.8255 46.5422 26.8255H44.1V19.6069H46.5422C46.6031 19.6069 46.6526 19.6565 46.6526 19.7173V26.7152ZM27.9918 54.8162H20.7735V52.2634H27.9918V54.8162ZM30.3246 47.7084V50.0412C30.3246 50.102 30.275 50.1515 30.2143 50.1515H18.5512C18.4904 50.1515 18.4408 50.1019 18.4408 50.0412V47.7084C18.4408 47.6476 18.4904 47.5981 18.5512 47.5981H30.2143C30.275 47.598 30.3246 47.6476 30.3246 47.7084Z" fill="white"/>
</svg>
