<svg width="71" height="66" viewBox="0 0 71 66" fill="none" xmlns="http://www.w3.org/2000/svg">
<path d="M59.9332 32.6142V25.7232L63.0028 27.7651C63.5806 28.1495 64.2429 28.3417 64.9053 28.3417C65.5677 28.3417 66.2301 28.1494 66.8079 27.765C67.7676 27.1266 68.3405 26.0574 68.3405 24.9049C68.3405 23.7523 67.7676 22.6831 66.8079 22.0447L58.8944 16.7805C58.4331 16.4737 57.81 16.5988 57.5029 17.0603C57.196 17.5218 57.3212 18.1447 57.7827 18.4518L65.6962 23.716C66.101 23.9853 66.3332 24.4187 66.3332 24.9049C66.3332 25.391 66.101 25.8244 65.6962 26.0937C65.2157 26.4132 64.5949 26.4132 64.1145 26.0937L59.4861 23.0147C59.4859 23.0146 59.4857 23.0145 59.4855 23.0143L35.2713 6.90711L35.1447 6.82287C35.114 6.80246 35.0826 6.78371 35.0508 6.76537C35.0445 6.76165 35.0383 6.75737 35.032 6.75379C34.9984 6.7349 34.9642 6.71766 34.9299 6.70125C34.9251 6.69891 34.9204 6.69615 34.9154 6.69381C34.879 6.67671 34.8421 6.66127 34.8049 6.64679C34.8018 6.64569 34.7989 6.64417 34.7959 6.64307C34.7773 6.6359 34.7583 6.63024 34.7394 6.62376C34.2295 6.44865 33.6597 6.51442 33.196 6.82287L4.22598 26.094C3.74546 26.4134 3.12457 26.4134 2.64432 26.094C2.2395 25.8247 2.0073 25.3913 2.0073 24.9051C2.0073 24.419 2.2395 23.9856 2.64432 23.7163L34.1703 2.74484L52.5897 14.9977C53.0513 15.3046 53.6743 15.1795 53.9812 14.7179C54.2881 14.2564 54.163 13.6335 53.7015 13.3264L35.1447 0.982141C34.5528 0.588347 33.7878 0.588347 33.196 0.982141L23.7335 7.27664V5.64617H24.0209C24.7397 5.64617 25.3244 5.06141 25.3244 4.34263V1.30355C25.3244 0.584762 24.7397 0 24.0209 0H13.424C12.7052 0 12.1205 0.584762 12.1205 1.30355V4.34263C12.1205 5.06141 12.7052 5.64617 13.424 5.64617H13.7112V13.9434L1.53257 22.0447C0.572904 22.6831 0 23.7524 0 24.905C0 26.0576 0.572904 27.1268 1.53257 27.7652C2.68844 28.5341 4.18199 28.5339 5.33773 27.7652L8.40728 25.7233V43.4301C8.40728 43.9844 8.85664 44.4338 9.41093 44.4338C9.96522 44.4338 10.4146 43.9844 10.4146 43.4301V24.3881L34.1703 8.58556L57.9259 24.3881V31.9653C57.8379 31.9431 57.7494 31.9235 57.6612 31.9027C57.624 31.8939 57.5869 31.8848 57.5495 31.8762C57.4502 31.8535 57.3507 31.832 57.2511 31.8111C57.1957 31.7994 57.14 31.7882 57.0844 31.7771C56.9923 31.7587 56.9001 31.7407 56.8075 31.7239C56.7403 31.7116 56.6726 31.7006 56.605 31.6891C56.5206 31.6749 56.4365 31.66 56.352 31.6471C56.2086 31.625 56.0646 31.605 55.92 31.5867C55.8541 31.5783 55.7879 31.5715 55.7217 31.5639C55.628 31.5532 55.5342 31.5425 55.44 31.5333C55.3719 31.5267 55.3038 31.5209 55.2355 31.5151C55.1411 31.507 55.0465 31.4997 54.9515 31.4932C54.886 31.4888 54.8204 31.4844 54.7547 31.4806C54.6512 31.4747 54.5474 31.4703 54.4434 31.4663C54.3867 31.4641 54.3302 31.4615 54.2735 31.4598C54.122 31.4555 53.9699 31.4531 53.8174 31.4528C53.8093 31.4528 53.801 31.4524 53.7929 31.4524C45.6858 31.4524 38.9012 37.2236 37.3318 44.8734C37.1076 45.9662 36.9899 47.0974 36.9899 48.2555C36.9899 48.3967 36.9917 48.5379 36.9953 48.6789C37.0344 50.2559 37.2921 51.7796 37.7389 53.2211C37.7393 53.2224 37.7397 53.224 37.7401 53.2255C37.7601 53.2899 37.7813 53.3538 37.8022 53.418C37.9527 53.8858 38.1226 54.3473 38.3136 54.8H33.3695V31.4333C33.3695 30.2678 32.4213 29.3197 31.2559 29.3197H16.5391C15.3735 29.3197 14.4255 30.2679 14.4255 31.4333V54.8H10.4146V49.7197C10.4146 49.1654 9.96522 48.716 9.41093 48.716C8.85664 48.716 8.40728 49.1654 8.40728 49.7197V54.8H4.27644C2.74084 54.8 1.49134 56.0493 1.49134 57.5851C1.49134 59.1207 2.7407 60.3702 4.27644 60.3702H42.1612C45.1825 63.2722 49.2829 65.0587 53.793 65.0587C63.0582 65.0587 70.5961 57.5208 70.5961 48.2556C70.5961 41.1563 66.1705 35.0712 59.9332 32.6142ZM21.7262 8.6119L15.7185 12.6082V5.64617H21.7262V8.6119ZM14.1278 2.0073H23.3171V3.63887H14.1278V2.0073ZM16.4326 31.4333C16.4326 31.3746 16.4803 31.327 16.5389 31.327H31.2559C31.3146 31.327 31.3622 31.3747 31.3622 31.4333V54.8H16.4326V31.4333ZM4.27644 58.3629C3.84763 58.3629 3.49865 58.0139 3.49865 57.5851C3.49865 57.1561 3.84763 56.8073 4.27644 56.8073H39.326C39.6444 57.3447 39.9927 57.864 40.3689 58.3629H4.27644ZM53.793 63.0514C47.319 63.0514 41.8035 58.8717 39.8017 53.0691C39.7838 53.0169 39.766 52.9647 39.7487 52.9122C39.7273 52.848 39.7063 52.7836 39.6858 52.719C39.6521 52.6122 39.6193 52.505 39.588 52.3974C39.5826 52.3789 39.5769 52.3605 39.5716 52.3421C39.3208 51.4661 39.1505 50.5661 39.0639 49.6558C39.0625 49.6407 39.0613 49.6256 39.0599 49.6105C39.0483 49.4847 39.0387 49.3588 39.0303 49.2328C39.0281 49.1996 39.0259 49.1663 39.0239 49.133C39.0173 49.0209 39.0122 48.9088 39.0081 48.7965C39.0067 48.7601 39.0049 48.7239 39.004 48.6873C38.9997 48.5435 38.9972 48.3996 38.9972 48.2555C38.9972 47.2357 39.1009 46.2396 39.2983 45.2773C40.6803 38.5413 46.6544 33.4597 53.793 33.4597C53.7958 33.4597 53.7987 33.4598 53.8014 33.4598C53.9807 33.4599 54.1594 33.4644 54.3378 33.4708C54.3796 33.4724 54.4213 33.4737 54.463 33.4757C54.6356 33.4834 54.8078 33.4939 54.9796 33.5075C55.0217 33.5108 55.0636 33.5151 55.1055 33.5187C55.2519 33.5315 55.3981 33.5467 55.544 33.5639C55.5841 33.5686 55.6245 33.5727 55.6646 33.5777C55.824 33.5978 55.9827 33.6215 56.1412 33.6468C56.204 33.6568 56.2668 33.6672 56.3294 33.6781C56.4783 33.7039 56.6268 33.7313 56.7747 33.7616C56.8448 33.776 56.9144 33.792 56.984 33.8073C57.079 33.8282 57.1738 33.8502 57.2684 33.873C57.3857 33.9014 57.5025 33.9311 57.6187 33.9622C57.7053 33.9854 57.7916 34.0089 57.8778 34.0335C57.9743 34.0614 58.0706 34.0899 58.1664 34.1196C58.2068 34.1321 58.247 34.1455 58.2874 34.1583C64.255 36.0654 68.5887 41.6634 68.5887 48.2553C68.5888 56.414 61.9514 63.0514 53.793 63.0514Z" fill="white"/>
<path d="M63.7191 40.5574C63.1743 40.0498 62.4639 39.7837 61.7203 39.8116C60.9761 39.838 60.2869 40.1528 59.7797 40.6977L51.2947 49.8099L48.6835 46.9688C47.6433 45.8373 45.8766 45.7629 44.745 46.8028C43.6135 47.8428 43.539 49.6097 44.5791 50.7411L49.2292 55.8005C49.7533 56.3706 50.498 56.6991 51.2755 56.7015H51.2813C52.0522 56.7015 52.7958 56.3779 53.3212 55.8137L63.8593 44.4965C64.3667 43.9516 64.6316 43.2418 64.6051 42.4978C64.5785 41.7538 64.2638 41.0645 63.7191 40.5574ZM62.3903 43.1286L51.8521 54.4459C51.7052 54.6038 51.4971 54.6944 51.2813 54.6944V55.698L51.2788 54.6944C51.0622 54.6937 50.8537 54.6017 50.707 54.4422L46.0569 49.3828C45.7659 49.0663 45.7867 48.5718 46.1033 48.2807C46.2529 48.1433 46.442 48.0754 46.6308 48.0754C46.8416 48.0754 47.0519 48.1602 47.2055 48.3272L50.5508 51.9669C50.7401 52.1729 51.0068 52.2905 51.2866 52.2913C51.2877 52.2913 51.2888 52.2913 51.2899 52.2913C51.5684 52.2913 51.8345 52.1755 52.0244 51.9716L61.2487 42.0654C61.3906 41.9129 61.5834 41.8249 61.7917 41.8175C61.9987 41.8103 62.1985 41.8842 62.3511 42.0262C62.5036 42.1683 62.5917 42.3612 62.599 42.5694C62.6065 42.7774 62.5323 42.9761 62.3903 43.1286Z" fill="white"/>
<path d="M28.31 40.502C27.7576 40.502 27.3101 40.9495 27.3101 41.5019V43.5685C27.3101 44.1208 27.7576 44.5684 28.31 44.5684C28.8623 44.5684 29.3099 44.1208 29.3099 43.5685V41.5019C29.3099 40.9495 28.8623 40.502 28.31 40.502Z" fill="white"/>
</svg>
