<svg width="70" height="65" viewBox="0 0 70 65" fill="none" xmlns="http://www.w3.org/2000/svg">
<circle cx="14.0933" cy="28" r="3.5" stroke="white" stroke-width="2"/>
<circle cx="14.0933" cy="37" r="3.5" stroke="white" stroke-width="2"/>
<circle cx="14.0933" cy="46" r="3.5" stroke="white" stroke-width="2"/>
<circle cx="14.0933" cy="55" r="3.5" stroke="white" stroke-width="2"/>
<circle cx="57.0933" cy="28" r="3.5" stroke="white" stroke-width="2"/>
<circle cx="57.0933" cy="37" r="3.5" stroke="white" stroke-width="2"/>
<circle cx="57.0933" cy="46" r="3.5" stroke="white" stroke-width="2"/>
<circle cx="57.0933" cy="55" r="3.5" stroke="white" stroke-width="2"/>
<line x1="13.5933" y1="32.5" x2="57.5933" y2="32.5" stroke="white" stroke-width="2"/>
<line x1="13.5933" y1="24.5" x2="57.5933" y2="24.5" stroke="white" stroke-width="2"/>
<line x1="13.5933" y1="50.5" x2="57.5933" y2="50.5" stroke="white" stroke-width="2"/>
<line x1="13.5933" y1="58.5" x2="57.5933" y2="58.5" stroke="white" stroke-width="2"/>
<line x1="13.5933" y1="41.5" x2="57.5933" y2="41.5" stroke="white" stroke-width="2"/>
<path d="M35.5933 1.74807L66.7312 20.0573C67.2046 20.3357 67.365 20.9438 67.0904 21.4194L65.5812 24.0333C65.3053 24.5112 64.6945 24.6753 64.2163 24.3999L35.5933 7.92182L35.5933 1.74807Z" stroke="white" stroke-width="2"/>
<path d="M33.5933 7.94965L33.5933 1.79301L2.81756 20.8015C2.34822 21.0914 2.20228 21.7066 2.4914 22.1764L4.3831 25.2504C4.6752 25.7251 5.29896 25.8694 5.76981 25.5712L33.5933 7.94965Z" stroke="white" stroke-width="2"/>
<rect x="1.59326" y="58.5" width="67" height="5" rx="2" stroke="white" stroke-width="2"/>
</svg>
