<svg width="72" height="72" viewBox="0 0 72 72" fill="none" xmlns="http://www.w3.org/2000/svg">
<path d="M72 22.0218C72 18.8709 69.4367 16.3076 66.286 16.3076H60.4617C59.2379 16.3076 58.2421 17.3032 58.2421 18.5271V20.9669H24.1327C23.5502 20.9669 23.078 21.4392 23.078 22.0216C23.078 22.6041 23.5502 23.0763 24.1327 23.0763H58.242V60.4615C58.242 61.6853 59.2377 62.681 60.4616 62.681L66.2858 62.6807C68.2723 62.6807 69.8887 64.2959 69.8903 66.2822C69.8903 66.2835 69.8902 66.2848 69.8902 66.286C69.8902 68.2736 68.2732 69.8905 66.2856 69.8905H5.71444C3.72684 69.8905 2.10994 68.2735 2.10994 66.286C2.10994 66.2842 2.10966 66.2824 2.10966 66.2805C2.11233 64.2951 3.72825 62.6807 5.71416 62.6807L11.5384 62.681C12.7623 62.681 13.758 61.6853 13.758 60.4615V23.0763H19.914C20.4965 23.0763 20.9687 22.6041 20.9687 22.0216C20.9687 21.4392 20.4965 20.9669 19.914 20.9669H13.758V18.5271C13.758 17.3032 12.7624 16.3076 11.5386 16.3076H5.71416C2.56331 16.3076 0 18.8709 0 22.0218V66.2855C0 66.2907 0.000703125 66.2957 0.00084375 66.3009C0.009 69.4447 2.5688 71.9999 5.71444 71.9999H66.2857C69.4332 71.9999 71.9941 69.4419 71.9994 66.2959C71.9994 66.2924 72 66.289 72 66.2855V22.0218ZM2.10938 22.0218C2.10938 20.0342 3.72642 18.417 5.71416 18.417H6.98934V22.0219C6.98934 22.6044 7.46156 23.0766 8.04403 23.0766C8.6265 23.0766 9.09872 22.6044 9.09872 22.0219V18.417H11.5384C11.5992 18.417 11.6485 18.4665 11.6485 18.5271V60.4615C11.6485 60.5222 11.599 60.5716 11.5384 60.5716L9.09872 60.5714V56.9671C9.09872 56.3846 8.6265 55.9124 8.04403 55.9124C7.46156 55.9124 6.98934 56.3846 6.98934 56.9671V60.5714L5.71416 60.5713C4.34855 60.5713 3.09347 61.0528 2.10938 61.8549V22.0218ZM66.286 60.5713L65.0108 60.5714V56.9671C65.0108 56.3846 64.5386 55.9124 63.9561 55.9124C63.3735 55.9124 62.9014 56.3846 62.9014 56.9671V60.5716L60.4617 60.5717C60.4008 60.5717 60.3515 60.5222 60.3515 60.4616V18.5272C60.3515 18.4665 60.401 18.4171 60.4617 18.4171H62.9014V22.0221C62.9014 22.6045 63.3735 23.0767 63.9561 23.0767C64.5386 23.0767 65.0108 22.6045 65.0108 22.0221V18.4171H66.286C68.2734 18.417 69.8906 20.034 69.8906 22.0218V61.8549C68.9067 61.0527 67.6515 60.5713 66.286 60.5713Z" fill="white"/>
<path d="M55.692 29.0107C55.692 28.4283 55.22 27.9561 54.6374 27.9561H18.4873C17.2854 27.9561 16.3076 28.9338 16.3076 30.1357V44.1935C16.3076 45.3954 17.2854 46.3731 18.4873 46.3731H34.9451V58.1716C34.9451 59.3735 35.9228 60.3513 37.1248 60.3513H53.5122C54.7141 60.3513 55.6919 59.3735 55.6919 58.1716V29.0107H55.692ZM53.5827 44.2638H37.0544V34.6255C39.3607 34.1932 41.1822 32.3717 41.6145 30.0654H53.5825V44.2638H53.5827ZM39.4466 46.3731C39.0969 47.514 38.1953 48.4156 37.0544 48.7653V46.3731H39.4466ZM37.0544 32.4576V30.0654H39.4466C39.0969 31.2063 38.1953 32.1079 37.0544 32.4576ZM18.4873 30.0654H34.9451V44.2638H23.1814C22.7364 41.8895 20.8196 40.0279 18.4169 39.6677V30.1357C18.417 30.0969 18.4485 30.0654 18.4873 30.0654ZM18.417 44.1935V41.8158C19.6538 42.1161 20.6432 43.0555 21.0135 44.2638H18.4873C18.4485 44.2638 18.417 44.2323 18.417 44.1935ZM53.5124 58.2419H37.1248C37.0859 58.2419 37.0544 58.2104 37.0544 58.1716V50.9333C39.3608 50.5011 41.1822 48.6795 41.6145 46.3731H53.5825V58.1716C53.5827 58.2104 53.551 58.2419 53.5124 58.2419Z" fill="white"/>
<path d="M27.7358 58.172V55.7627C27.7358 54.5608 26.758 53.583 25.5561 53.583H18.4873C17.2854 53.583 16.3076 54.5608 16.3076 55.7627V58.172C16.3076 59.3739 17.2854 60.3517 18.4873 60.3517H25.5561C26.758 60.3517 27.7358 59.3739 27.7358 58.172ZM18.417 58.172V55.7627C18.417 55.7239 18.4485 55.6924 18.4873 55.6924H25.5561C25.5949 55.6924 25.6264 55.7239 25.6264 55.7627V58.172C25.6264 58.2108 25.5949 58.2423 25.5561 58.2423H18.4873C18.4485 58.2423 18.417 58.2108 18.417 58.172Z" fill="white"/>
<path d="M17.3623 62.9014C16.7798 62.9014 16.3076 63.3736 16.3076 63.9561C16.3076 64.5385 16.7798 65.0107 17.3623 65.0107H24.3514C24.9338 65.0107 25.4061 64.5385 25.4061 63.9561C25.4061 63.3736 24.9338 62.9014 24.3514 62.9014H17.3623Z" fill="white"/>
<path d="M29.0112 62.9014C28.4288 62.9014 27.9565 63.3736 27.9565 63.9561C27.9565 64.5385 28.4288 65.0107 29.0112 65.0107H40.6595C41.2421 65.0107 41.7142 64.5385 41.7142 63.9561C41.7142 63.3736 41.2421 62.9014 40.6595 62.9014H29.0112Z" fill="white"/>
<path d="M45.3188 62.9014C44.7362 62.9014 44.2642 63.3736 44.2642 63.9561C44.2642 64.5385 44.7362 65.0107 45.3188 65.0107H54.6376C55.2203 65.0107 55.6923 64.5385 55.6923 63.9561C55.6923 63.3736 55.2203 62.9014 54.6376 62.9014H45.3188Z" fill="white"/>
<path d="M13.8286 13.7578H43.2115C43.7941 13.7578 44.2662 13.2855 44.2662 12.7031C44.2662 12.1206 43.7941 11.6484 43.2115 11.6484H13.8286C13.7898 11.6484 13.7583 11.6169 13.7583 11.5781V2.17969C13.7583 2.14088 13.7898 2.10938 13.8286 2.10938H16.3084V5.71402C16.3084 6.29648 16.7806 6.7687 17.3631 6.7687C17.9456 6.7687 18.4178 6.29648 18.4178 5.71402V2.10938H20.9676V3.348C20.9676 3.93047 21.4398 4.40269 22.0223 4.40269C22.6047 4.40269 23.077 3.93047 23.077 3.348V2.10938H25.6266V5.71402C25.6266 6.29648 26.0988 6.7687 26.6813 6.7687C27.2638 6.7687 27.736 6.29648 27.736 5.71402V2.10938H30.2858V3.348C30.2858 3.93047 30.758 4.40269 31.3405 4.40269C31.923 4.40269 32.3952 3.93047 32.3952 3.348V2.10938H34.9449V5.71402C34.9449 6.29648 35.4171 6.7687 35.9995 6.7687C36.582 6.7687 37.0541 6.29648 37.0541 5.71402V2.10938H39.6041V3.348C39.6041 3.93047 40.0761 4.40269 40.6587 4.40269C41.2412 4.40269 41.7134 3.93047 41.7134 3.348V2.10938H44.2639V5.71402C44.2639 6.29648 44.736 6.7687 45.3186 6.7687C45.9012 6.7687 46.3733 6.29648 46.3733 5.71402V2.10938H48.923V3.348C48.923 3.93047 49.3952 4.40269 49.9777 4.40269C50.5603 4.40269 51.0324 3.93047 51.0324 3.348V2.10938H53.583V5.71402C53.583 6.29648 54.0551 6.7687 54.6377 6.7687C55.2203 6.7687 55.6924 6.29648 55.6924 5.71402V2.10938H58.1722C58.2108 2.10938 58.2425 2.14088 58.2425 2.17969V11.5781C58.2425 11.6169 58.2108 11.6484 58.1722 11.6484H47.4301C46.8475 11.6484 46.3754 12.1206 46.3754 12.7031C46.3754 13.2855 46.8475 13.7578 47.4301 13.7578H58.1722C59.3741 13.7578 60.3519 12.78 60.3519 11.5781V2.17969C60.3519 0.977766 59.3741 0 58.1722 0H13.8286C12.6267 0 11.6489 0.977766 11.6489 2.17969V11.5781C11.6489 12.78 12.6267 13.7578 13.8286 13.7578Z" fill="white"/>
</svg>
