<svg width="62" height="57" viewBox="0 0 62 57" fill="none" xmlns="http://www.w3.org/2000/svg">
<path d="M48.5521 23.5195H43.0568C42.5694 23.5195 42.1744 23.9145 42.1744 24.4019C42.1744 24.8893 42.5694 25.2844 43.0568 25.2844H46.424L39.0701 32.6384L37.1187 30.6863C36.9532 30.5209 36.7288 30.4279 36.4947 30.4279C36.2606 30.4279 36.0362 30.5209 35.8707 30.6863L29.808 36.7491L26.87 33.8109C26.7046 33.6455 26.4801 33.5525 26.2462 33.5525C26.0122 33.5525 25.7877 33.6455 25.6223 33.8109L14.7595 44.6738C14.4148 45.0184 14.4148 45.577 14.7595 45.9218C14.9318 46.094 15.1575 46.1802 15.3833 46.1802C15.6092 46.1802 15.835 46.094 16.0072 45.9218L26.2462 35.6828L29.1841 38.621C29.3496 38.7864 29.5741 38.8794 29.808 38.8794C30.042 38.8794 30.2665 38.7864 30.4319 38.621L36.4946 32.5582L38.4462 34.51C38.7909 34.8544 39.3495 34.8544 39.6941 34.51L47.6697 26.5344V29.9192C47.6697 30.4066 48.0647 30.8016 48.5521 30.8016C49.0395 30.8016 49.4345 30.4066 49.4345 29.9192V24.4019C49.4345 23.9145 49.0395 23.5195 48.5521 23.5195Z" fill="white"/>
<path d="M49.412 47.1083H13.4709V22.2651C13.4709 21.7778 13.0759 21.3828 12.5885 21.3828C12.1012 21.3828 11.7061 21.7778 11.7061 22.2652V47.9908C11.7061 48.4782 12.1011 48.8732 12.5885 48.8732H49.412C49.8994 48.8732 50.2944 48.4782 50.2944 47.9908C50.2944 47.5034 49.8994 47.1083 49.412 47.1083Z" fill="white"/>
<path d="M59.3241 51.1125H54.3088V22.601L57.1308 24.4782C58.1688 25.1688 59.5099 25.1687 60.548 24.4783C61.4097 23.9051 61.9241 22.9449 61.9241 21.9098C61.9241 20.8747 61.4095 19.9147 60.548 19.3414L53.7722 14.8341C53.3664 14.5639 52.8187 14.6742 52.5489 15.0799C52.2788 15.4857 52.389 16.0334 52.7947 16.3032L59.5705 20.8106C59.9448 21.0595 60.1594 21.4601 60.1594 21.9097C60.1594 22.3593 59.9448 22.7599 59.5705 23.0089C59.1263 23.3045 58.5525 23.3043 58.1083 23.0089L31.8676 5.55331C31.3405 5.20287 30.6594 5.20275 30.1322 5.55356L3.89171 23.009C3.44754 23.3045 2.87355 23.3046 2.42938 23.0089C2.05508 22.76 1.8405 22.3594 1.8405 21.9098C1.8405 21.4602 2.0552 21.0596 2.42938 20.8106L31 1.80534L48.2312 13.2677C48.6368 13.5376 49.1847 13.4274 49.4544 13.0219C49.7245 12.6161 49.6143 12.0684 49.2086 11.7986L31.8676 0.262849C31.3405 -0.0875961 30.6594 -0.0877174 30.1322 0.263091L21.5594 5.96576V5.20166H21.8142C22.4464 5.20166 22.9607 4.68725 22.9607 4.05514V1.37824C22.9607 0.746134 22.4463 0.231728 21.8142 0.231728H12.4798C11.8476 0.231728 11.3333 0.746134 11.3333 1.37824V4.05526C11.3333 4.68737 11.8476 5.20178 12.4798 5.20178H12.7346V11.8361L1.45204 19.3414C0.590211 19.9147 0.0758047 20.8748 0.0758047 21.9099C0.0758047 22.945 0.590332 23.9051 1.45204 24.4783C1.97104 24.8237 2.56573 24.9963 3.16067 24.9963C3.75536 24.9963 4.35029 24.8236 4.86918 24.4783L7.69103 22.6013V38.3342C7.69103 38.8216 8.08604 39.2167 8.57344 39.2167C9.06072 39.2167 9.45585 38.8216 9.45585 38.3342V21.4271L31 7.09569L52.5442 21.4271V51.1124H9.45573V43.8163C9.45573 43.3289 9.06072 42.934 8.57332 42.934C8.08604 42.934 7.69091 43.329 7.69091 43.8163V51.1124H2.67593C1.2004 51.1125 0 52.3129 0 53.7885C0 55.264 1.2004 56.4644 2.67593 56.4644H59.3241C60.7996 56.4644 62 55.264 62 53.7885C62 52.3129 60.7996 51.1125 59.3241 51.1125ZM19.7947 7.13976L14.4993 10.6623V5.20178H19.7947V7.13976ZM13.0981 1.99643H21.1961V3.43708H13.0981V1.99643ZM59.3241 54.6997H2.67593C2.17351 54.6997 1.7647 54.2909 1.7647 53.7885C1.7647 53.2859 2.17351 52.8771 2.67593 52.8771H59.3241C59.8265 52.8771 60.2353 53.2859 60.2353 53.7885C60.2353 54.2909 59.8265 54.6997 59.3241 54.6997Z" fill="white"/>
</svg>
