<svg width="64" height="64" viewBox="0 0 64 64" fill="none" xmlns="http://www.w3.org/2000/svg">
<path d="M63.8821 15.1654C63.6619 14.3463 63.1245 13.648 62.3892 13.2246C61.6534 12.7991 60.7785 12.6841 59.9578 12.9043C59.1382 13.1251 58.4399 13.662 58.0165 14.3973L57.4833 15.3253C56.9766 15.0342 56.3293 15.2055 56.033 15.7096L53.3241 20.327L52.3962 19.7937C52.1504 19.6516 51.8577 19.613 51.5838 19.687C51.3094 19.7615 51.0761 19.9416 50.935 20.1885C50.646 20.6983 50.822 21.3461 51.3297 21.6387L52.2577 22.172L43.1926 37.8811L40.9529 43.8645L39.8864 45.8584C39.262 46.9446 39.3287 48.2949 40.0572 49.314L37.6576 52.2572L36.9859 50.5726C36.6828 49.8217 35.9814 49.3072 35.1747 49.2442C34.3676 49.1807 33.5943 49.5796 33.1782 50.2737L32.7944 50.9241L32.432 46.6582C32.3487 45.649 31.5671 44.8377 30.562 44.7159C29.5565 44.5945 28.6046 45.197 28.2833 46.1573L25.6598 54.0278C25.4765 54.5844 25.7764 55.1843 26.3315 55.3718C26.4357 55.4202 26.5476 55.4494 26.6622 55.4567C27.1205 55.4582 27.5287 55.1661 27.6756 54.7318L30.2881 46.8613L30.6615 51.1908C30.7386 52.1146 31.4025 52.8826 32.3055 53.092C33.2084 53.3013 34.1426 52.9035 34.6181 52.1083L35.0128 51.4574L35.6741 53.1321C35.9548 53.8377 36.5896 54.3412 37.341 54.4532C38.0925 54.5652 38.8465 54.2689 39.3214 53.6757L41.8064 50.5299C42.0813 50.6018 42.3646 50.6377 42.6489 50.6367C43.792 50.6455 44.8532 50.0436 45.4323 49.0578L46.4988 47.2769L50.5621 42.3392L59.723 26.4379L60.6509 26.9711C60.8983 27.1127 61.0785 27.3466 61.1519 27.622C61.2258 27.8954 61.1873 28.187 61.0457 28.4323L56.7798 35.8232C56.6189 36.0658 56.5642 36.3637 56.6287 36.648C56.6933 36.9318 56.8709 37.1771 57.1208 37.3266C57.3666 37.4692 57.6593 37.5078 57.9332 37.4338C58.2076 37.3594 58.4409 37.1792 58.582 36.9324L62.848 29.5415C63.2734 28.8057 63.3885 27.9308 63.1677 27.1101C62.9469 26.2905 62.41 25.5922 61.6747 25.1688L60.7468 24.6356L63.413 20.0177C63.7041 19.511 63.5327 18.8642 63.0292 18.5674L63.5624 17.6394C63.9993 16.8922 64.1149 15.9996 63.8821 15.1654ZM59.8615 15.4638C60.0026 15.2169 60.237 15.0362 60.5124 14.9628C60.7863 14.8951 61.0759 14.9331 61.3227 15.0696C61.5701 15.2107 61.7502 15.445 61.8242 15.72C61.8919 15.9939 61.8539 16.2834 61.7174 16.5303L61.1842 17.4582L59.3283 16.3917L59.8615 15.4638ZM45.3255 45.2403L44.7923 44.9309L43.2139 44.0134L44.7283 39.961L48.0876 41.9018L45.3255 45.2403ZM42.1261 48.322C41.6757 48.008 41.5372 47.4039 41.8064 46.9249L42.3396 45.9974L44.195 47.0639L43.6618 47.9809C43.5123 48.2402 43.2613 48.4246 42.9692 48.4897C42.6771 48.5542 42.3714 48.4938 42.1261 48.322ZM49.3035 40.1531L45.6135 38.0202L54.1453 23.2384L57.8353 25.3714L49.3035 40.1531ZM58.9018 23.5264L55.2118 21.3935L57.3448 17.7035L61.0347 19.8364L58.9018 23.5264Z" fill="white"/>
<path d="M16.829 47.7887L13.0542 51.5536L10.7931 49.2925C10.377 48.8791 9.70527 48.8791 9.2892 49.2925C9.08715 49.493 8.97363 49.7654 8.97363 50.0497C8.97363 50.334 9.08715 50.6069 9.2892 50.8069L11.5503 53.0679C11.9502 53.4647 12.4907 53.6871 13.0542 53.6865C13.6207 53.6897 14.1659 53.4673 14.5685 53.0679L18.3329 49.2925C18.6953 48.8692 18.6709 48.2386 18.2772 47.8449C17.883 47.4507 17.2524 47.4262 16.829 47.7887Z" fill="white"/>
<path d="M4.26611 50.6575C4.26611 55.6644 8.32477 59.7226 13.3312 59.7226C18.3376 59.7226 22.3962 55.6644 22.3962 50.6575C22.3962 50.0686 21.9187 49.5911 21.3298 49.5911C20.7408 49.5911 20.2633 50.0686 20.2633 50.6575C20.2633 54.486 17.1597 57.5896 13.3312 57.5896C9.50268 57.5896 6.39907 54.486 6.39907 50.6575C6.39907 46.829 9.50268 43.7254 13.3312 43.7254C14.8319 43.7213 16.2926 44.2082 17.4903 45.1122C17.9616 45.4657 18.6302 45.3699 18.9833 44.8987C19.3369 44.4274 19.2416 43.7593 18.7703 43.4057C16.0234 41.3457 12.348 41.0145 9.2772 42.5496C6.20587 44.0853 4.26611 47.2243 4.26611 50.6575Z" fill="white"/>
<path d="M38.393 8.53139C38.982 8.53139 39.4595 8.05439 39.4595 7.46491C39.4595 6.87596 38.982 6.39844 38.393 6.39844H10.6646C10.0757 6.39844 9.59814 6.87596 9.59814 7.46491V11.7308C9.59814 12.3203 10.0757 12.7973 10.6646 12.7973H38.393C38.982 12.7973 39.4595 12.3203 39.4595 11.7308C39.4595 11.1419 38.982 10.6643 38.393 10.6643H11.7311V8.53139H38.393Z" fill="white"/>
<path d="M13.8643 14.9307C13.2754 14.9307 12.7979 15.4082 12.7979 15.9971C12.7979 16.5866 13.2754 17.0636 13.8643 17.0636H35.1939C35.7828 17.0636 36.2604 16.5866 36.2604 15.9971C36.2604 15.4082 35.7828 14.9307 35.1939 14.9307H13.8643Z" fill="white"/>
<path d="M41.5925 22.3955H18.13C17.541 22.3955 17.0635 22.873 17.0635 23.462C17.0635 24.0515 17.541 24.5284 18.13 24.5284H41.5925C42.1814 24.5284 42.6589 24.0515 42.6589 23.462C42.6589 22.873 42.1814 22.3955 41.5925 22.3955Z" fill="white"/>
<path d="M30.9278 29.8614C30.9278 29.2724 30.4503 28.7949 29.8613 28.7949H8.53181C7.94285 28.7949 7.46533 29.2724 7.46533 29.8614C7.46533 30.4509 7.94285 30.9279 8.53181 30.9279H29.8613C30.4503 30.9279 30.9278 30.4509 30.9278 29.8614Z" fill="white"/>
<path d="M41.5929 28.7949H34.1275C33.5386 28.7949 33.061 29.2724 33.061 29.8614C33.061 30.4509 33.5386 30.9279 34.1275 30.9279H41.5929C42.1818 30.9279 42.6593 30.4509 42.6593 29.8614C42.6593 29.2724 42.1818 28.7949 41.5929 28.7949Z" fill="white"/>
<path d="M19.1966 36.2599C19.7855 36.2599 20.2631 35.7829 20.2631 35.1934C20.2631 34.6045 19.7855 34.127 19.1966 34.127H8.53181C7.94285 34.127 7.46533 34.6045 7.46533 35.1934C7.46533 35.7829 7.94285 36.2599 8.53181 36.2599H19.1966Z" fill="white"/>
<path d="M23.4625 36.2599H30.9278C31.5168 36.2599 31.9943 35.7829 31.9943 35.1934C31.9943 34.6045 31.5168 34.127 30.9278 34.127H23.4625C22.8735 34.127 22.396 34.6045 22.396 35.1934C22.396 35.7829 22.8735 36.2599 23.4625 36.2599Z" fill="white"/>
<path d="M47.9915 49.0579C47.4025 49.0579 46.925 49.5355 46.925 50.1244V60.7892C46.925 61.3787 46.4475 61.8557 45.8585 61.8557H3.19943C2.61047 61.8557 2.13295 61.3787 2.13295 60.7892V3.19943C2.13295 2.61047 2.61047 2.13295 3.19943 2.13295H45.8585C46.4475 2.13295 46.925 2.61047 46.925 3.19943V23.2282C46.925 23.8171 47.4025 24.2946 47.9915 24.2946C48.5804 24.2946 49.0579 23.8171 49.0579 23.2282V3.19943C49.0579 1.43256 47.6254 0 45.8585 0H3.19943C1.43256 0 0 1.43256 0 3.19943V60.7892C0 62.5566 1.43256 63.9886 3.19943 63.9886H45.8585C47.6254 63.9886 49.0579 62.5566 49.0579 60.7892V50.1244C49.0579 49.5355 48.5804 49.0579 47.9915 49.0579Z" fill="white"/>
</svg>
