<svg width="46" height="51" viewBox="0 0 46 51" fill="none" xmlns="http://www.w3.org/2000/svg">
<path d="M44.9083 16.8837C44.9081 16.8836 44.908 16.8835 44.9078 16.8834L43.5211 15.8196C43.1305 15.5203 42.569 15.5942 42.2695 15.9847L40.7946 17.9073L40.7265 17.855C40.2515 17.4904 39.5682 17.5803 39.2034 18.0557L22.5583 39.7539C22.5582 39.7541 22.5581 39.7542 22.558 39.7544C22.5579 39.7545 22.5578 39.7547 22.5577 39.7548C22.5448 39.7717 22.5346 39.7902 22.5233 39.8081C22.5142 39.8224 22.5039 39.8359 22.4959 39.8507C22.4778 39.8844 22.4623 39.9195 22.4497 39.9557L20.2726 46.2201C20.2725 46.2204 20.2724 46.2207 20.2723 46.221L20.2709 46.225C20.1492 46.5754 20.2653 46.9623 20.5595 47.1879C20.7135 47.306 20.8975 47.3655 21.0819 47.3655C21.2497 47.3655 21.418 47.3161 21.5641 47.2169L21.5682 47.2141C21.5683 47.2141 21.5683 47.214 21.5684 47.214L27.0548 43.4884C27.0856 43.4675 27.115 43.4439 27.1424 43.4181C27.154 43.4072 27.1638 43.3947 27.1745 43.3831C27.1889 43.3678 27.2042 43.3532 27.2171 43.3369C27.2181 43.3356 27.2189 43.3342 27.2199 43.333C27.2204 43.3323 27.2211 43.3317 27.2217 43.3311L42.2018 23.8033L42.6482 24.1458L36.5123 32.1443C36.2704 32.4597 36.3299 32.9116 36.6454 33.1536C36.7761 33.2539 36.93 33.3024 37.083 33.3024C37.2993 33.3024 37.513 33.2053 37.6547 33.0206L43.9781 24.7775C44.3578 24.2825 44.2642 23.5709 43.769 23.191L43.0781 22.6609L43.8669 21.6326C44.2312 21.1575 44.1412 20.4744 43.6661 20.1098L43.5979 20.0575L45.0726 18.1351C45.3721 17.7449 45.2984 17.1836 44.9083 16.8837ZM22.2069 45.0402L23.483 41.3679L25.423 42.8562L22.2069 45.0402ZM26.5186 41.8821L24.1401 40.0575L40.1307 19.2126L42.5093 21.0372L26.5186 41.8821ZM42.4555 19.1813L41.937 18.7836L43.0788 17.2951L43.5973 17.6928L42.4555 19.1813Z" fill="white"/>
<path d="M33.5308 22.6768H5.15109C4.75343 22.6768 4.43115 22.999 4.43115 23.3967C4.43115 23.7943 4.75343 24.1166 5.15109 24.1166H33.5308C33.9285 24.1165 34.2508 23.7943 34.2508 23.3967C34.2508 22.9991 33.9285 22.6768 33.5308 22.6768Z" fill="white"/>
<path d="M26.6516 30.1055H5.15109C4.75343 30.1055 4.43115 30.4277 4.43115 30.8254C4.43115 31.223 4.75343 31.5454 5.15109 31.5454H26.6516C27.0493 31.5453 27.3715 31.223 27.3715 30.8254C27.3715 30.4278 27.0493 30.1055 26.6516 30.1055Z" fill="white"/>
<path d="M18.1412 44.9629H5.15109C4.75343 44.9629 4.43115 45.2852 4.43115 45.6828C4.43115 46.0805 4.75343 46.4028 5.15109 46.4028H18.1412C18.5388 46.4028 18.8611 46.0805 18.8611 45.6828C18.8611 45.2852 18.5388 44.9629 18.1412 44.9629Z" fill="white"/>
<path d="M33.5308 44.9629H27.1638C26.7661 44.9629 26.4438 45.2852 26.4438 45.6828C26.4438 46.0805 26.7661 46.4028 27.1638 46.4028H33.5308C33.9285 46.4028 34.2508 46.0805 34.2508 45.6828C34.2508 45.2852 33.9285 44.9629 33.5308 44.9629Z" fill="white"/>
<path d="M38.2164 17.8105C38.614 17.8105 38.9363 17.4882 38.9363 17.0906V12.2152C38.9363 12.207 38.9354 12.199 38.9351 12.1909C38.9348 12.1828 38.9344 12.1748 38.9339 12.1668C38.9319 12.1361 38.9285 12.1055 38.9226 12.0756C38.9225 12.0753 38.9225 12.075 38.9225 12.0747C38.9164 12.0442 38.9076 12.0144 38.8978 11.9851C38.8953 11.9776 38.8926 11.9703 38.8899 11.9629C38.8794 11.935 38.8678 11.9077 38.854 11.8814C38.8533 11.88 38.8527 11.8785 38.852 11.8771C38.8374 11.8496 38.8203 11.8234 38.8021 11.7979C38.7976 11.7914 38.7928 11.7851 38.7881 11.7789C38.7687 11.7536 38.7484 11.729 38.7256 11.7063L27.2302 0.210835C27.2074 0.188111 27.1829 0.16766 27.1576 0.148296C27.1513 0.143455 27.145 0.138712 27.1384 0.134069C27.1129 0.115989 27.0869 0.0988968 27.0594 0.0843735C27.0577 0.0834843 27.056 0.0828915 27.0544 0.0820023C27.0283 0.0683682 27.0013 0.0568089 26.9737 0.0465339C26.9661 0.0436687 26.9586 0.0410012 26.9509 0.0383336C26.9218 0.0285526 26.8922 0.0198584 26.862 0.0138317C26.8609 0.0136341 26.8598 0.0135353 26.8587 0.0133377C26.8297 0.00770625 26.8001 0.00434711 26.7702 0.00237115C26.7616 0.00177836 26.7531 0.00138317 26.7445 0.00108678C26.7367 0.000889182 26.729 0 26.7211 0H1.49531C0.670838 0 0 0.67074 0 1.49521V49.0894C0 49.9138 0.67074 50.5846 1.49531 50.5846H37.4409C38.2654 50.5846 38.9362 49.9138 38.9362 49.0894V34.6464C38.9362 34.2488 38.6139 33.9265 38.2163 33.9265C37.8186 33.9265 37.4963 34.2488 37.4963 34.6465V49.0894C37.4963 49.1199 37.4714 49.1448 37.4408 49.1448H1.49531C1.46478 49.1448 1.43978 49.1199 1.43978 49.0894V1.49521C1.43978 1.46468 1.46468 1.43978 1.49531 1.43978H26.0013V11.4138C26.0013 12.2526 26.6837 12.935 27.5225 12.935H37.4964V17.0906C37.4964 17.4881 37.8187 17.8105 38.2164 17.8105ZM27.5224 11.4951C27.4775 11.4951 27.441 11.4586 27.441 11.4137V2.4579H27.4411L36.4783 11.4951H27.5224Z" fill="white"/>
<path d="M17.7386 10.2643L11.7189 4.60931C11.4418 4.34898 11.0102 4.34898 10.7332 4.60931L4.71341 10.2643C4.42354 10.5365 4.40931 10.9922 4.6815 11.2819C4.95379 11.5716 5.40925 11.5859 5.69912 11.3137L11.226 6.12181L16.7528 11.3137C16.8919 11.4442 17.069 11.5089 17.2456 11.5089C17.4375 11.5089 17.6289 11.4327 17.7706 11.2819C18.0427 10.9922 18.0285 10.5365 17.7386 10.2643Z" fill="white"/>
<path d="M15.7255 11.1927L12.0409 7.73106C11.584 7.30189 10.868 7.30189 10.4112 7.73106L6.72631 11.1927C6.48781 11.4167 6.35107 11.7329 6.35107 12.06V17.0953C6.35107 17.7516 6.88498 18.2855 7.5412 18.2855H14.9107C15.567 18.2855 16.1009 17.7516 16.1009 17.0953V12.06C16.1009 11.7329 15.9641 11.4167 15.7255 11.1927ZM11.7539 16.8457H10.6981V14.35H11.7539V16.8457ZM13.1937 16.8457V13.8939C13.1937 13.3515 12.7525 12.9103 12.2102 12.9103H10.2419C9.69954 12.9103 9.2584 13.3515 9.2584 13.8939V16.8457H7.79086V12.1681L11.226 8.94104L14.6611 12.1681V16.8457H13.1937Z" fill="white"/>
<path d="M20.2453 37.5342H12.2146C11.8169 37.5342 11.4946 37.8565 11.4946 38.2541C11.4946 38.6518 11.8169 38.9741 12.2146 38.9741H20.2453C20.6429 38.974 20.9652 38.6517 20.9652 38.2541C20.9652 37.8566 20.6429 37.5342 20.2453 37.5342Z" fill="white"/>
<path d="M7.74183 37.5342H5.23947C4.84181 37.5342 4.51953 37.8565 4.51953 38.2541C4.51953 38.6518 4.84191 38.9741 5.23947 38.9741H7.74183C8.13949 38.9741 8.46177 38.6518 8.46177 38.2541C8.46177 37.8565 8.13949 37.5342 7.74183 37.5342Z" fill="white"/>
</svg>
