<svg width="63" height="49" viewBox="0 0 63 49" fill="none" xmlns="http://www.w3.org/2000/svg">
<path d="M61.8628 13.7795L51.6156 0.468013C51.2363 -0.024313 50.5445 -0.14576 50.0199 0.187751L43.4039 4.39541H34.7751C34.6635 4.39541 34.5523 4.41923 34.4449 4.45053L27.7546 6.37639L20.8125 4.47762L14.0671 0.187751C13.5514 -0.140154 12.8722 -0.0289841 12.4887 0.446526L1.1545 14.4858C0.747188 14.9902 0.814451 15.7268 1.30584 16.1496L7.24645 21.262L12.5761 28.4442C11.0174 30.1047 11.0477 32.7238 12.6695 34.346C13.3884 35.0644 14.3025 35.4703 15.2428 35.5647C15.2101 35.7777 15.1933 35.9939 15.1933 36.2135C15.1933 37.3467 15.6347 38.4121 16.4358 39.2132C17.2373 40.0148 18.3028 40.4562 19.4359 40.4562C19.4514 40.4562 19.4663 40.4552 19.4813 40.4548C19.4808 40.4837 19.4794 40.5122 19.4794 40.5412C19.4794 41.6744 19.9208 42.7398 20.7219 43.5414C21.5234 44.3425 22.5889 44.7839 23.7221 44.7839C23.9458 44.7839 24.1672 44.7657 24.3844 44.732C24.4764 45.6756 24.8833 46.5939 25.6045 47.3151C26.4313 48.1423 27.5178 48.5557 28.6042 48.5557C29.6907 48.5557 30.7772 48.1423 31.6044 47.3151L32.2532 46.6663L32.5256 46.8858C33.3458 47.6804 34.4108 48.0774 35.4758 48.0774C36.5623 48.0774 37.6487 47.664 38.4755 46.8368C39.3196 45.9927 39.7329 44.8787 39.7157 43.7703C40.8236 43.7871 41.9381 43.3742 42.7822 42.5306C43.6253 41.687 44.0387 40.5739 44.0223 39.4659C45.1766 39.4841 46.2714 39.0408 47.0884 38.2239C47.9325 37.3798 48.3458 36.2658 48.3286 35.1574C49.4375 35.1742 50.551 34.7613 51.3951 33.9172C52.8356 32.4767 53.0211 30.25 51.9528 28.6063L55.8442 20.4563L61.6947 15.4218C62.1781 15.0056 62.2519 14.2844 61.8628 13.7795ZM13.6831 2.78904L18.5335 5.87332L7.98213 18.728L3.75393 15.0888L13.6831 2.78904ZM14.3674 30.0435L15.8313 28.5796C15.8757 28.5353 15.9224 28.4932 15.97 28.454C16.2564 28.2204 16.603 28.0812 16.9701 28.0481C16.9804 28.0471 16.9911 28.0471 17.0014 28.0467C17.0537 28.0425 17.106 28.0397 17.1588 28.0401C17.6605 28.0471 18.1267 28.2522 18.4723 28.617C19.1505 29.334 19.1141 30.5055 18.391 31.2286L16.9715 32.6481C16.2536 33.366 15.0854 33.366 14.3674 32.6481C13.6495 31.9297 13.6495 30.7615 14.3674 30.0435ZM18.1337 37.5153C17.7857 37.1678 17.5942 36.7053 17.5942 36.2135C17.5942 35.7216 17.7857 35.2592 18.1337 34.9112L20.9722 32.0726C21.516 31.5289 22.3708 31.3799 23.0658 31.7111C23.7823 32.0525 24.1854 32.8303 24.0803 33.6127C24.0243 34.0302 23.83 34.4235 23.532 34.722L20.7382 37.5153C20.3902 37.8633 19.9278 38.0548 19.4359 38.0548C18.9441 38.0548 18.4817 37.8633 18.1337 37.5153ZM22.4198 41.843C22.0718 41.4955 21.8803 41.033 21.8803 40.5412C21.8803 40.0493 22.0718 39.5869 22.4198 39.2389L25.2579 36.4003C25.8395 35.8192 26.7723 35.6941 27.4841 36.1084C28.1343 36.4867 28.4748 37.2294 28.3632 37.9693C28.302 38.3762 28.1086 38.7587 27.8176 39.0497L25.0244 41.843C24.6764 42.191 24.2139 42.3825 23.7221 42.3825C23.2302 42.3825 22.7678 42.191 22.4198 41.843ZM27.302 45.6172C26.584 44.8992 26.584 43.731 27.302 43.0131L28.7659 41.5492C28.8102 41.5048 28.8565 41.4632 28.9041 41.424C28.9055 41.4231 28.9064 41.4221 28.9074 41.4212C29.1456 41.2278 29.4254 41.0984 29.7239 41.0419C29.7309 41.041 29.7379 41.04 29.7449 41.0391C29.7963 41.0298 29.8486 41.0223 29.9009 41.0176C29.9219 41.0158 29.9429 41.0158 29.9644 41.0144C30.0074 41.012 30.0499 41.0092 30.0934 41.0097C30.5946 41.0167 31.0612 41.2213 31.4068 41.5866C31.4494 41.6314 31.4891 41.6781 31.5255 41.7262C32.0776 42.4479 32.0033 43.5199 31.3181 44.2056L29.906 45.6176C29.1881 46.3356 28.0199 46.3351 27.302 45.6172ZM49.6972 32.2193C48.9792 32.9377 47.811 32.9372 47.0931 32.2193C47.0669 32.1931 47.0394 32.1688 47.0113 32.146L39.292 24.3453C38.8254 23.874 38.0654 23.8703 37.5941 24.3369C37.1228 24.8031 37.119 25.5631 37.5852 26.0344L45.3881 33.9186C45.3891 33.9195 45.39 33.9205 45.391 33.9214C46.1089 34.6393 46.1089 35.808 45.391 36.526C45.043 36.874 44.5805 37.0655 44.0887 37.0655C43.5963 37.0655 43.1339 36.874 42.7864 36.526L37.5665 31.2519C37.1004 30.7806 36.3404 30.7769 35.8691 31.243C35.3978 31.7097 35.394 32.4697 35.8602 32.941L41.0002 38.1342C41.0263 38.1669 41.0544 38.1982 41.0843 38.2281C41.8022 38.946 41.8022 40.1147 41.0843 40.8327C40.3659 41.5506 39.1972 41.5501 38.4792 40.8322L35.6304 37.9534C35.1637 37.4821 34.4038 37.4779 33.9325 37.9446C33.4612 38.4107 33.4574 39.1707 33.9236 39.642L36.693 42.44C36.7192 42.4726 36.7472 42.5044 36.7776 42.5343C37.4955 43.2522 37.4955 44.4209 36.7776 45.1389C36.0597 45.8573 34.8914 45.8568 34.1735 45.1389C34.0908 45.0562 33.9937 44.9927 33.9012 44.9217C33.8227 44.8619 33.8021 44.8203 33.8414 44.725C33.8811 44.6283 33.9404 44.541 33.9801 44.4438C34.024 44.3355 34.0595 44.2238 34.0941 44.1117C34.2781 43.5185 34.3323 42.8804 34.2496 42.2648C34.0908 41.0835 33.4411 40.0176 32.4564 39.3431C31.9244 38.9792 31.3088 38.7405 30.6707 38.6508C30.9799 37.2869 30.6086 35.808 29.6426 34.7874C28.8476 33.9476 27.7737 33.4763 26.6186 33.4604C26.5765 33.4599 26.5345 33.4599 26.492 33.4604C26.5177 32.358 26.1169 31.2627 25.3569 30.4597C24.5615 29.6199 23.4876 29.1486 22.3329 29.1327C21.9896 29.128 21.643 29.1644 21.3086 29.2415C21.1656 28.247 20.6644 27.3269 19.9054 26.6687C19.151 26.0157 18.2023 25.6532 17.192 25.6392C16.1284 25.6238 15.0835 26.0162 14.2936 26.7294L9.65296 20.4763L20.755 6.95092L24.2933 7.91876L19.6723 16.073C19.1136 17.059 18.9726 18.2034 19.2748 19.2955C19.577 20.3881 20.2861 21.297 21.2721 21.8557C21.3338 21.8907 21.3959 21.9239 21.459 21.9556C21.4636 21.958 21.4683 21.9603 21.4734 21.9627C21.6393 22.0453 21.8098 22.1163 21.9826 22.1761C22.7874 22.455 23.6567 22.4853 24.4951 22.2537C25.5872 21.9514 26.4962 21.2419 27.0549 20.2563L30.0579 14.9571L35.4197 15.3373L49.6976 29.6147C50.4151 30.3331 50.4151 31.5014 49.6972 32.2193ZM50.1946 26.7164L36.8005 13.3227C36.7753 13.297 36.7486 13.2727 36.7211 13.2498C36.5282 13.0891 36.289 12.992 36.0368 12.9742L29.4716 12.5085C29.0176 12.4772 28.5664 12.7187 28.3422 13.1143L24.966 19.0727C24.7235 19.5006 24.3288 19.8084 23.8547 19.9396C23.3811 20.0709 22.8841 20.0092 22.4558 19.7668C22.0279 19.5244 21.7201 19.1297 21.5888 18.6556C21.4576 18.1815 21.5188 17.6845 21.7617 17.2566L26.2687 9.30232L28.0951 8.77683C28.1072 8.77309 28.1189 8.76842 28.1311 8.76468L34.9475 6.79631H43.1834L53.4653 19.8668L50.1946 26.7164ZM55.038 17.9825L45.5297 5.88873L50.3824 2.80259L59.2672 14.3433L55.038 17.9825Z" fill="white"/>
</svg>
