<svg width="66" height="66" viewBox="0 0 66 66" fill="none" xmlns="http://www.w3.org/2000/svg">
<path d="M64.002 59.792H61.7258C61.7264 59.7703 61.729 59.7493 61.729 59.7275V55.3834C61.729 54.2816 60.8327 53.3853 59.7309 53.3853H59.5901C59.5907 53.3638 59.5933 53.3427 59.5933 53.3209V48.9768C59.5933 47.875 58.697 46.9787 57.5952 46.9787H55.3222V29.6924H58.5574L59.0987 30.1614C59.9464 30.8963 61.2337 30.8041 61.9688 29.9564L63.3674 28.3425C64.102 27.4947 64.0101 26.2072 63.1623 25.4724L34.3326 0.493904C33.573 -0.164677 32.4271 -0.164549 31.6677 0.493775L7.98214 21.0173C7.57854 21.3669 7.53484 21.9775 7.88456 22.3811C8.23441 22.7847 8.84504 22.8282 9.24826 22.4786L32.934 1.95492C32.9717 1.92218 33.0285 1.92231 33.0662 1.95518L61.8959 26.9337C61.9379 26.9702 61.9425 27.0341 61.906 27.0761L60.5075 28.6898C60.4707 28.7319 60.4069 28.7363 60.3648 28.7L34.3326 6.14579C33.5727 5.48734 32.4271 5.48759 31.6677 6.14566L3.49957 30.5527C3.47868 30.5709 3.45355 30.579 3.42635 30.5771C3.39863 30.575 3.3753 30.5634 3.35712 30.5424L1.95849 28.9286C1.92201 28.8866 1.92665 28.8227 1.96855 28.7862L6.31822 25.0172C6.72183 24.6677 6.76553 24.057 6.41581 23.6534C6.06596 23.2498 5.45533 23.2062 5.05211 23.556L0.702177 27.3252C0.291482 27.6811 0.0441115 28.1756 0.00531081 28.7176C-0.0334899 29.2597 0.141307 29.7845 0.497216 30.1951L1.89598 31.8089C2.25201 32.2196 2.7465 32.467 3.28855 32.5058C3.33818 32.5094 3.38755 32.5112 3.43653 32.5112C3.92547 32.5111 4.39288 32.3373 4.76581 32.014L7.44525 29.6923H10.6778V55.5208H10.5404C9.43865 55.5208 8.54237 56.4171 8.54237 57.5188V59.7918H1.9982C0.896438 59.7918 0.00015457 60.6881 0.00015457 61.7899V63.9984C0.00015457 65.1002 0.896438 65.9965 1.9982 65.9965H7.5757C8.10976 65.9965 8.5425 65.5636 8.5425 65.0297C8.5425 64.4958 8.10976 64.0629 7.5757 64.0629H1.9982C1.96275 64.0629 1.93374 64.034 1.93374 63.9984V61.7899C1.93374 61.7543 1.96275 61.7254 1.9982 61.7254H64.002C64.0374 61.7254 64.0664 61.7543 64.0664 61.7899V63.9984C64.0664 64.034 64.0374 64.0629 64.002 64.0629H11.4428C10.9087 64.0629 10.476 64.4958 10.476 65.0297C10.476 65.5636 10.9087 65.9965 11.4428 65.9965H64.002C65.1038 65.9965 66 65.1002 66 63.9984V61.7899C66 60.6883 65.1038 59.792 64.002 59.792ZM57.6598 48.9768V53.3209C57.6598 53.3565 57.6308 53.3853 57.5954 53.3853H55.3224V48.9123H57.5954C57.6308 48.9123 57.6598 48.9412 57.6598 48.9768ZM38.4433 59.792H19.018V57.519C19.018 56.4172 18.1218 55.5209 17.02 55.5209H16.8826V44.6413H49.1176V46.9787H42.5734C41.4717 46.9787 40.5754 47.875 40.5754 48.9768V53.3209C40.5754 53.3427 40.578 53.3638 40.5786 53.3853H40.4378C39.3361 53.3853 38.4398 54.2816 38.4398 55.3834V59.7275C38.4399 59.7492 38.4425 59.7703 38.4433 59.792ZM27.7623 29.6924V29.8298C27.7623 30.9316 28.6585 31.8279 29.7603 31.8279H36.2399C37.3417 31.8279 38.2379 30.9316 38.2379 29.8298V29.6924H49.1176V38.4366H16.8826V29.6924H27.7623ZM36.2399 21.3521H36.1025V10.2374L51.3961 23.4876H38.2379V23.3501C38.2379 22.2485 37.3417 21.3521 36.2399 21.3521ZM36.2399 23.2857C36.2753 23.2857 36.3043 23.3145 36.3043 23.3501V29.8298C36.3043 29.8654 36.2753 29.8943 36.2399 29.8943H29.7603C29.7248 29.8943 29.6958 29.8654 29.6958 29.8298V23.3501C29.6958 23.3145 29.7248 23.2857 29.7603 23.2857H36.2399ZM29.7603 21.3521C28.6585 21.3521 27.7623 22.2483 27.7623 23.3501V23.4876H14.606L29.8978 10.2377V21.3521H29.7603ZM53.3888 53.3852H46.7801V48.9122H53.3888V53.3852ZM16.8826 40.3701H49.1176V42.7075H16.8826V40.3701ZM42.5091 53.3208V48.9766C42.5091 48.9411 42.5381 48.9122 42.5736 48.9122H44.8467V53.3852H42.5736C42.538 53.3852 42.5091 53.3563 42.5091 53.3208ZM55.5244 55.3188V59.7918H44.6447V55.3188H55.5244ZM53.3888 46.9787H51.0512V29.6924H53.3888V46.9787ZM38.2379 27.7588V25.4214H53.6278L56.3258 27.7588H38.2379ZM33.0664 7.60707L34.1689 8.56226V21.3522H31.8314V8.56226L32.9341 7.60681C32.9717 7.57433 33.0286 7.5742 33.0664 7.60707ZM12.3745 25.4212H27.7623V27.7587H9.67674L12.3745 25.4212ZM12.6114 29.6924H14.949V55.5209H12.6114V29.6924ZM10.476 59.792V57.519C10.476 57.4834 10.505 57.4545 10.5404 57.4545H11.6446H15.9158H17.02C17.0555 57.4545 17.0845 57.4834 17.0845 57.519V59.792H10.476ZM40.3735 59.7275V55.3834C40.3735 55.3478 40.4025 55.3189 40.438 55.3189H42.5734H42.7108V59.792H40.4378C40.4025 59.792 40.3735 59.7631 40.3735 59.7275ZM57.4579 59.792V55.3189H57.5954H59.7309C59.7664 55.3189 59.7954 55.3478 59.7954 55.3834V59.7275C59.7954 59.7631 59.7664 59.792 59.7309 59.792H57.4579Z" fill="white"/>
<path d="M32.7334 27.5557H33.2672C33.8013 27.5557 34.234 27.1228 34.234 26.5889C34.234 26.0549 33.8013 25.6221 33.2672 25.6221H32.7334C32.1993 25.6221 31.7666 26.0549 31.7666 26.5889C31.7666 27.1228 32.1993 27.5557 32.7334 27.5557Z" fill="white"/>
</svg>
