<svg width="60" height="66" viewBox="0 0 60 66" fill="none" xmlns="http://www.w3.org/2000/svg">
<path d="M1.64697 57.2286C1.07669 57.2286 0.615723 56.7677 0.615723 56.1974C0.615723 51.0782 4.77991 46.9141 9.89903 46.9141C10.4693 46.9141 10.9303 47.375 10.9303 47.9453C10.9303 48.5156 10.4693 48.9766 9.89903 48.9766C5.91738 48.9766 2.67822 52.2157 2.67822 56.1974C2.67822 56.7677 2.21725 57.2286 1.64697 57.2286Z" fill="white"/>
<path d="M47.022 57.2275C46.4517 57.2275 45.9907 56.7666 45.9907 56.1963C45.9907 52.2167 42.7516 48.9775 38.772 48.9775C38.2017 48.9775 37.7407 48.5166 37.7407 47.9463C37.7407 47.376 38.2017 46.915 38.772 46.915C43.8901 46.915 48.0532 51.0782 48.0532 56.1963C48.0532 56.7666 47.5923 57.2275 47.022 57.2275Z" fill="white"/>
<path d="M9.89892 48.9766C9.32968 48.9766 8.86768 48.5156 8.86768 47.9454C8.86768 47.3761 9.32864 46.9141 9.89892 46.9141L15.0541 46.9131C15.6234 46.9131 16.0854 47.3741 16.0854 47.9443C16.0854 48.5136 15.6244 48.9756 15.0541 48.9756L9.89892 48.9766Z" fill="white"/>
<path d="M1.648 65.4744C1.07875 65.4744 0.616754 65.0134 0.616754 64.4431L0.615723 56.1973C0.615723 55.628 1.07669 55.166 1.64697 55.166C2.21622 55.166 2.67822 55.627 2.67822 56.1973L2.67925 64.4431C2.67925 65.0124 2.21829 65.4744 1.648 65.4744Z" fill="white"/>
<path d="M47.022 65.4744C46.4517 65.4744 45.9907 65.0135 45.9907 64.4432V56.1963C45.9907 55.626 46.4517 55.165 47.022 55.165C47.5923 55.165 48.0532 55.626 48.0532 56.1963V64.4432C48.0532 65.0135 47.5923 65.4744 47.022 65.4744Z" fill="white"/>
<path d="M17.1157 46.9129C16.5454 46.9129 16.0845 46.4519 16.0845 45.8817V42.0361C16.0845 41.4659 16.5454 41.0049 17.1157 41.0049C17.686 41.0049 18.147 41.4659 18.147 42.0361V45.8817C18.147 46.4519 17.686 46.9129 17.1157 46.9129Z" fill="white"/>
<path d="M31.5532 46.9129C30.9829 46.9129 30.522 46.4519 30.522 45.8817V42.0361C30.522 41.4659 30.9829 41.0049 31.5532 41.0049C32.1235 41.0049 32.5845 41.4659 32.5845 42.0361V45.8817C32.5845 46.4519 32.1235 46.9129 31.5532 46.9129Z" fill="white"/>
<path d="M24.3345 44.8516C15.2368 44.8516 7.83447 37.4492 7.83447 28.3516C7.83447 27.7813 8.29544 27.3203 8.86572 27.3203C9.436 27.3203 9.89697 27.7813 9.89697 28.3516C9.89697 36.3128 16.3732 42.7891 24.3345 42.7891C32.2957 42.7891 38.772 36.3128 38.772 28.3516C38.772 27.7813 39.2329 27.3203 39.8032 27.3203C40.3735 27.3203 40.8345 27.7813 40.8345 28.3516C40.8345 37.4492 33.4322 44.8516 24.3345 44.8516Z" fill="white"/>
<path d="M8.86573 29.383C8.8647 29.383 8.86367 29.383 8.86264 29.383C8.29236 29.3809 7.83242 28.9179 7.83448 28.3486L7.85098 23.2078C7.85304 22.6386 8.31401 22.1797 8.88223 22.1797H8.88532C9.4556 22.1818 9.91554 22.6448 9.91348 23.214L9.89698 28.3548C9.89492 28.9241 9.43395 29.383 8.86573 29.383Z" fill="white"/>
<path d="M39.8032 29.383C39.2329 29.383 38.772 28.922 38.772 28.3517V23.2109C38.772 22.6407 39.2329 22.1797 39.8032 22.1797C40.3735 22.1797 40.8345 22.6407 40.8345 23.2109V28.3517C40.8345 28.922 40.3735 29.383 39.8032 29.383Z" fill="white"/>
<path d="M18.7214 51.0402C18.3574 51.0402 18.0058 50.8473 17.817 50.507C17.5417 50.0079 17.7232 49.3798 18.2223 49.1055L23.8354 46.0097C24.3345 45.7354 24.9615 45.9169 25.2369 46.415C25.5122 46.9141 25.3307 47.5422 24.8316 47.8165L19.2185 50.9123C19.0618 50.9989 18.8906 51.0402 18.7214 51.0402Z" fill="white"/>
<path d="M29.9466 51.0395C29.7785 51.0395 29.6073 50.9983 29.4495 50.9116L23.8364 47.8158C23.3383 47.5405 23.1568 46.9135 23.4311 46.4143C23.7075 45.9173 24.3335 45.7358 24.8326 46.0091L30.4457 49.1049C30.9438 49.3802 31.1253 50.0072 30.851 50.5063C30.6633 50.8477 30.3106 51.0395 29.9466 51.0395Z" fill="white"/>
<path d="M12.9905 51.0394C12.7265 51.0394 12.4625 50.9384 12.2614 50.7373C11.8582 50.334 11.8582 49.6823 12.2614 49.2791L16.3864 45.152C16.7896 44.7488 17.4414 44.7488 17.8446 45.152C18.2478 45.5552 18.2478 46.207 17.8446 46.6102L13.7196 50.7373C13.5185 50.9394 13.2545 51.0394 12.9905 51.0394Z" fill="white"/>
<path d="M17.1155 55.1623C16.8515 55.1623 16.5875 55.0612 16.3864 54.8601L12.2614 50.7372C11.8582 50.3339 11.8582 49.6822 12.2614 49.279C12.6646 48.8758 13.3164 48.8758 13.7196 49.279L17.8446 53.4019C18.2478 53.8051 18.2478 54.4569 17.8446 54.8601C17.6435 55.0622 17.3795 55.1623 17.1155 55.1623Z" fill="white"/>
<path d="M15.053 57.2249C14.789 57.2249 14.525 57.1238 14.3239 56.9227C13.9207 56.5195 13.9207 55.8677 14.3239 55.4645L16.3864 53.402C16.7896 52.9988 17.4414 52.9988 17.8446 53.402C18.2478 53.8052 18.2478 54.457 17.8446 54.8602L15.7821 56.9227C15.581 57.1248 15.317 57.2249 15.053 57.2249Z" fill="white"/>
<path d="M21.2417 65.4753C20.9271 65.4753 20.6188 65.3329 20.4156 65.0628L14.2281 56.8128C13.8858 56.358 13.9786 55.7114 14.4344 55.37C14.8892 55.0277 15.5347 55.1194 15.8771 55.5763L22.0646 63.8263C22.407 64.2811 22.3142 64.9277 21.8583 65.269C21.6738 65.4082 21.4572 65.4753 21.2417 65.4753Z" fill="white"/>
<path d="M24.3342 65.4748C23.9217 65.4748 23.5319 65.2252 23.373 64.8169L16.1543 46.2544C15.948 45.7233 16.211 45.1262 16.7411 44.9199C17.2711 44.7137 17.8703 44.9766 18.0755 45.5067L25.2943 64.0692C25.5005 64.6003 25.2375 65.1974 24.7075 65.4036C24.5848 65.4531 24.4589 65.4748 24.3342 65.4748Z" fill="white"/>
<path d="M35.6785 51.0394C35.4145 51.0394 35.1505 50.9384 34.9494 50.7373L30.8244 46.6102C30.4212 46.207 30.4212 45.5552 30.8244 45.152C31.2276 44.7488 31.8794 44.7488 32.2826 45.152L36.4076 49.2791C36.8108 49.6823 36.8108 50.334 36.4076 50.7373C36.2065 50.9394 35.9425 51.0394 35.6785 51.0394Z" fill="white"/>
<path d="M31.5535 55.1623C31.2895 55.1623 31.0255 55.0612 30.8244 54.8601C30.4212 54.4569 30.4212 53.8051 30.8244 53.4019L34.9494 49.279C35.3526 48.8758 36.0043 48.8758 36.4076 49.279C36.8108 49.6822 36.8108 50.3339 36.4076 50.7372L32.2826 54.8601C32.0815 55.0622 31.8175 55.1623 31.5535 55.1623Z" fill="white"/>
<path d="M33.616 57.2249C33.352 57.2249 33.088 57.1238 32.8869 56.9227L30.8244 54.8602C30.4212 54.457 30.4212 53.8052 30.8244 53.402C31.2276 52.9988 31.8794 52.9988 32.2826 53.402L34.3451 55.4645C34.7483 55.8677 34.7483 56.5195 34.3451 56.9227C34.144 57.1248 33.88 57.2249 33.616 57.2249Z" fill="white"/>
<path d="M27.4276 65.4751C27.2121 65.4751 26.9955 65.408 26.8099 65.2688C26.3541 64.9275 26.2612 64.2809 26.6036 63.8261L32.7911 55.5761C33.1335 55.1203 33.7791 55.0295 34.2338 55.3698C34.6897 55.7112 34.7825 56.3578 34.4401 56.8125L28.2526 65.0626C28.0505 65.3338 27.7421 65.4751 27.4276 65.4751Z" fill="white"/>
<path d="M24.3347 65.4757C24.2099 65.4757 24.0841 65.4541 23.9614 65.4056C23.4303 65.1993 23.1673 64.6022 23.3746 64.0711L30.5933 45.5087C30.7996 44.9776 31.3987 44.7136 31.9278 44.9219C32.4588 45.1281 32.7218 45.7252 32.5145 46.2563L25.2958 64.8188C25.137 65.2261 24.7472 65.4757 24.3347 65.4757Z" fill="white"/>
<path d="M38.772 48.9775H33.6157C33.0454 48.9775 32.5845 48.5166 32.5845 47.9463C32.5845 47.376 33.0454 46.915 33.6157 46.915H38.772C39.3423 46.915 39.8032 47.376 39.8032 47.9463C39.8032 48.5166 39.3423 48.9775 38.772 48.9775Z" fill="white"/>
<path d="M21.1261 57.2258C20.9921 57.2258 20.8559 57.2 20.725 57.1443C20.2001 56.9226 19.9546 56.3173 20.1764 55.7934L22.3533 50.6392C22.575 50.1133 23.1804 49.8688 23.7043 50.0906C24.2292 50.3123 24.4746 50.9176 24.2529 51.4415L22.0759 56.5957C21.9089 56.9896 21.5273 57.2258 21.1261 57.2258Z" fill="white"/>
<path d="M27.5429 57.2258C27.1407 57.2258 26.7591 56.9896 26.5931 56.5957L24.4161 51.4394C24.1944 50.9145 24.4398 50.3102 24.9647 50.0885C25.4886 49.8667 26.0939 50.1122 26.3157 50.6371L28.4926 55.7934C28.7144 56.3183 28.4689 56.9226 27.944 57.1443C27.813 57.2 27.6769 57.2258 27.5429 57.2258Z" fill="white"/>
<path d="M25.3657 52.0713H23.3032C22.7329 52.0713 22.272 51.6103 22.272 51.04C22.272 50.4698 22.7329 50.0088 23.3032 50.0088H25.3657C25.936 50.0088 26.397 50.4698 26.397 51.04C26.397 51.6103 25.936 52.0713 25.3657 52.0713Z" fill="white"/>
<path d="M25.3659 52.0712C25.1297 52.0712 24.8915 51.9907 24.6976 51.8247C24.2634 51.4566 24.2119 50.8048 24.5821 50.3717L26.6446 47.9503C27.0138 47.5151 27.6645 47.4636 28.0976 47.8348C28.5318 48.203 28.5834 48.8547 28.2131 49.2878L26.1506 51.7092C25.9464 51.9485 25.6567 52.0712 25.3659 52.0712Z" fill="white"/>
<path d="M23.3035 52.0708C23.0127 52.0708 22.7229 51.9481 22.5187 51.7078L20.4562 49.2864C20.087 48.8533 20.1375 48.2016 20.5717 47.8334C21.0058 47.4632 21.6566 47.5137 22.0247 47.9489L24.0872 50.3703C24.4564 50.8034 24.4059 51.4552 23.9717 51.8233C23.7778 51.9904 23.5396 52.0708 23.3035 52.0708Z" fill="white"/>
<path d="M39.8031 20.0982C39.2328 20.0982 38.7718 19.6372 38.7718 19.067C38.7718 12.6 34.4251 6.87965 28.2015 5.15334C27.6529 5.00174 27.3311 4.43249 27.4837 3.88387C27.6364 3.33524 28.2046 3.01556 28.7532 3.16612C35.8657 5.1389 40.8343 11.6781 40.8343 19.068C40.8343 19.6372 40.3733 20.0982 39.8031 20.0982Z" fill="white"/>
<path d="M8.86572 20.0984C8.29544 20.0984 7.83447 19.6374 7.83447 19.0672C7.83447 11.6576 12.8175 5.11538 19.9537 3.15601C20.5013 3.00338 21.0706 3.32616 21.2211 3.87685C21.3717 4.42548 21.0499 4.99369 20.5003 5.14426C14.2571 6.85923 9.89801 12.5847 9.89801 19.0672C9.89697 19.6374 9.436 20.0984 8.86572 20.0984Z" fill="white"/>
<path d="M28.4782 3.14761C28.3864 3.14761 28.2936 3.13524 28.2018 3.11049C25.7021 2.41749 22.9888 2.41749 20.4973 3.10018C19.9549 3.24868 19.3815 2.92899 19.2299 2.37933C19.0794 1.83071 19.4011 1.26249 19.9508 1.11193C22.7981 0.326114 25.8959 0.330239 28.7504 1.12224C29.2991 1.27383 29.6218 1.84205 29.4692 2.39068C29.3444 2.84855 28.9299 3.14761 28.4782 3.14761Z" fill="white"/>
<path d="M40.85 24.2423H7.85107C7.28079 24.2423 6.81982 23.7813 6.81982 23.2111V19.084C6.81982 18.5137 7.28079 18.0527 7.85107 18.0527H40.85C41.4203 18.0527 41.8813 18.5137 41.8813 19.084V23.2111C41.8813 23.7813 41.4203 24.2423 40.85 24.2423ZM8.88232 22.1798H39.8188V20.1152H8.88232V22.1798Z" fill="white"/>
<path d="M20.2251 8.77348C19.6548 8.77348 19.1938 8.31251 19.1938 7.74223V2.10645C19.1938 1.53616 19.6548 1.0752 20.2251 1.0752C20.7954 1.0752 21.2563 1.53616 21.2563 2.10645V7.74223C21.2563 8.31251 20.7954 8.77348 20.2251 8.77348Z" fill="white"/>
<path d="M28.4771 8.77293C27.9068 8.77293 27.4458 8.31196 27.4458 7.74168V2.11621C27.4458 1.54593 27.9068 1.08496 28.4771 1.08496C29.0473 1.08496 29.5083 1.54593 29.5083 2.11621V7.74168C29.5083 8.31196 29.0473 8.77293 28.4771 8.77293Z" fill="white"/>
<path d="M53.1973 45.8887C49.2177 45.8887 45.9785 42.6495 45.9785 38.6699C45.9785 34.6903 49.2177 31.4512 53.1973 31.4512C53.7675 31.4512 54.2285 31.9121 54.2285 32.4824C54.2285 33.0527 53.7675 33.5137 53.1973 33.5137C50.3541 33.5137 48.041 35.8268 48.041 38.6699C48.041 41.5131 50.3541 43.8262 53.1973 43.8262C53.7675 43.8262 54.2285 44.2871 54.2285 44.8574C54.2285 45.4277 53.7675 45.8887 53.1973 45.8887Z" fill="white"/>
<path d="M53.7129 42.7949C53.1426 42.7949 52.6816 42.334 52.6816 41.7637C52.6816 41.1934 53.1426 40.7324 53.7129 40.7324C55.7032 40.7324 57.3223 39.1134 57.3223 37.123C57.3223 35.1327 55.7032 33.5137 53.7129 33.5137C53.1426 33.5137 52.6816 33.0527 52.6816 32.4824C52.6816 31.9121 53.1426 31.4512 53.7129 31.4512C56.8396 31.4512 59.3848 33.9963 59.3848 37.123C59.3848 40.2498 56.8396 42.7949 53.7129 42.7949Z" fill="white"/>
<path d="M53.7129 39.7053C53.1426 39.7053 52.6816 39.2443 52.6816 38.6741C52.6816 38.1038 53.1426 37.6428 53.7129 37.6428C53.9975 37.6428 54.2306 37.4097 54.2306 37.1251C54.2306 36.8405 53.9975 36.6074 53.7129 36.6074C53.1426 36.6074 52.6816 36.1465 52.6816 35.5762C52.6816 35.0059 53.1426 34.5449 53.7129 34.5449C55.136 34.5449 56.2931 35.702 56.2931 37.1251C56.2931 38.5482 55.136 39.7053 53.7129 39.7053Z" fill="white"/>
<path d="M53.1973 42.7949C50.9223 42.7949 49.0723 40.9449 49.0723 38.6699C49.0723 36.395 50.9223 34.5449 53.1973 34.5449C53.7675 34.5449 54.2285 35.0059 54.2285 35.5762C54.2285 36.1465 53.7675 36.6074 53.1973 36.6074C52.0598 36.6074 51.1348 37.5325 51.1348 38.6699C51.1348 39.8074 52.0598 40.7324 53.1973 40.7324C53.7675 40.7324 54.2285 41.1934 54.2285 41.7637C54.2285 42.334 53.7675 42.7949 53.1973 42.7949Z" fill="white"/>
<path d="M53.1973 65.4752C52.627 65.4752 52.166 65.0142 52.166 64.444V44.8574C52.166 44.2871 52.627 43.8262 53.1973 43.8262C53.7675 43.8262 54.2285 44.2871 54.2285 44.8574V64.444C54.2285 65.0142 53.7675 65.4752 53.1973 65.4752Z" fill="white"/>
<path d="M47.0098 65.4742C46.4395 65.4742 45.9785 65.0132 45.9785 64.4429V38.6699C45.9785 38.0996 46.4395 37.6387 47.0098 37.6387C47.58 37.6387 48.041 38.0996 48.041 38.6699V64.4429C48.041 65.0132 47.58 65.4742 47.0098 65.4742Z" fill="white"/>
<path d="M53.1992 42.7947C52.6289 42.7947 52.168 42.3337 52.168 41.7635V38.6738C52.168 38.1035 52.6289 37.6426 53.1992 37.6426C53.7695 37.6426 54.2305 38.1035 54.2305 38.6738V41.7635C54.2305 42.3337 53.7695 42.7947 53.1992 42.7947Z" fill="white"/>
<path d="M53.7128 39.7051H53.1992C52.6289 39.7051 52.168 39.2441 52.168 38.6738C52.168 38.1035 52.6289 37.6426 53.1992 37.6426H53.7128C54.2831 37.6426 54.744 38.1035 54.744 38.6738C54.744 39.2441 54.2831 39.7051 53.7128 39.7051Z" fill="white"/>
<path d="M53.7129 42.7949H53.1973C52.627 42.7949 52.166 42.334 52.166 41.7637C52.166 41.1934 52.627 40.7324 53.1973 40.7324H53.7129C54.2832 40.7324 54.7441 41.1934 54.7441 41.7637C54.7441 42.334 54.2832 42.7949 53.7129 42.7949Z" fill="white"/>
<path d="M53.7129 36.6074H53.1973C52.627 36.6074 52.166 36.1465 52.166 35.5762C52.166 35.0059 52.627 34.5449 53.1973 34.5449H53.7129C54.2832 34.5449 54.7441 35.0059 54.7441 35.5762C54.7441 36.1465 54.2832 36.6074 53.7129 36.6074Z" fill="white"/>
<path d="M58.3535 65.4742C57.7832 65.4742 57.3223 65.0132 57.3223 64.4429V37.123C57.3223 36.5528 57.7832 36.0918 58.3535 36.0918C58.9238 36.0918 59.3848 36.5528 59.3848 37.123V64.4429C59.3848 65.0132 58.9238 65.4742 58.3535 65.4742Z" fill="white"/>
<path d="M53.7129 33.5137H53.1973C52.627 33.5137 52.166 33.0527 52.166 32.4824C52.166 31.9121 52.627 31.4512 53.1973 31.4512H53.7129C54.2832 31.4512 54.7441 31.9121 54.7441 32.4824C54.7441 33.0527 54.2832 33.5137 53.7129 33.5137Z" fill="white"/>
</svg>
