<svg width="24" height="24" viewBox="0 0 24 24" fill="none" xmlns="http://www.w3.org/2000/svg">
<path d="M17.7957 3.78931H6.20441C4.87284 3.78931 3.78955 4.8726 3.78955 6.20417V17.7955C3.78955 19.1271 4.87284 20.2104 6.20441 20.2104H11.0341C11.3009 20.2104 11.5171 19.9942 11.5171 19.7274V14.8977C11.5171 14.6309 11.3009 14.4147 11.0341 14.4147H9.58522V12.4828H11.0341C11.3009 12.4828 11.5171 12.2666 11.5171 11.9998V10.0679C11.5171 8.73638 12.6004 7.65308 13.932 7.65308H16.3468V9.58497H14.4149C13.8823 9.58497 13.449 10.0183 13.449 10.5509V11.9998C13.449 12.2666 13.6652 12.4828 13.932 12.4828H16.2597L15.9376 14.4147H13.932C13.6652 14.4147 13.449 14.6309 13.449 14.8977V19.7274C13.449 19.9942 13.6652 20.2104 13.932 20.2104H17.7957C19.1273 20.2104 20.2106 19.1271 20.2106 17.7955V6.20417C20.2106 4.8726 19.1273 3.78931 17.7957 3.78931ZM19.2447 17.7955C19.2447 18.5945 18.5947 19.2444 17.7957 19.2444H14.4149V15.3806H16.3468C16.583 15.3806 16.7845 15.2099 16.8232 14.9771L17.3062 12.0793C17.3552 11.7859 17.129 11.5169 16.8298 11.5169H14.4149V10.5509H16.8298C17.0966 10.5509 17.3128 10.3347 17.3128 10.0679V7.17011C17.3128 6.90335 17.0966 6.68714 16.8298 6.68714H13.932C12.0678 6.68714 10.5512 8.20379 10.5512 10.0679V11.5169H9.10224C8.83548 11.5169 8.61927 11.7331 8.61927 11.9998V14.8977C8.61927 15.1644 8.83548 15.3806 9.10224 15.3806H10.5512V19.2444H6.20441C5.40543 19.2444 4.7555 18.5945 4.7555 17.7955V6.20417C4.7555 5.40519 5.40543 4.75525 6.20441 4.75525H17.7957C18.5947 4.75525 19.2447 5.40519 19.2447 6.20417V17.7955Z" fill="#65B32E"/>
<path d="M21.6562 0H2.34375C1.05139 0 0 1.05139 0 2.34375V21.6562C0 22.9486 1.05139 24 2.34375 24H21.6562C22.9486 24 24 22.9486 24 21.6562V2.34375C24 1.05139 22.9486 0 21.6562 0ZM23.0625 21.6562C23.0625 22.4317 22.4317 23.0625 21.6562 23.0625H2.34375C1.5683 23.0625 0.9375 22.4317 0.9375 21.6562V2.34375C0.9375 1.5683 1.5683 0.9375 2.34375 0.9375H21.6562C22.4317 0.9375 23.0625 1.5683 23.0625 2.34375V21.6562Z" fill="#65B32E"/>
</svg>
