<svg width="24" height="24" viewBox="0 0 24 24" fill="none" xmlns="http://www.w3.org/2000/svg">
<path d="M17.6471 4H6.35294C5.05551 4 4 5.05551 4 6.35294V17.6471C4 18.9445 5.05551 20 6.35294 20H17.6471C18.9445 20 20 18.9445 20 17.6471V6.35294C20 5.05551 18.9445 4 17.6471 4ZM19.0588 17.6471C19.0588 18.4256 18.4256 19.0588 17.6471 19.0588H6.35294C5.57445 19.0588 4.94118 18.4256 4.94118 17.6471V6.35294C4.94118 5.57445 5.57445 4.94118 6.35294 4.94118H17.6471C18.4256 4.94118 19.0588 5.57445 19.0588 6.35294V17.6471Z" fill="#65B32E"/>
<path d="M12 8C9.79444 8 8 9.79444 8 12C8 14.2056 9.79444 16 12 16C14.2056 16 16 14.2056 16 12C16 9.79444 14.2056 8 12 8ZM12 15.1111C10.2845 15.1111 8.88889 13.7155 8.88889 12C8.88889 10.2845 10.2845 8.88889 12 8.88889C13.7155 8.88889 15.1111 10.2845 15.1111 12C15.1111 13.7155 13.7155 15.1111 12 15.1111Z" fill="#65B32E"/>
<path d="M16.6668 6C15.9316 6 15.3335 6.59809 15.3335 7.33333C15.3335 8.06858 15.9316 8.66667 16.6668 8.66667C17.4021 8.66667 18.0002 8.06858 18.0002 7.33333C18.0002 6.59809 17.4021 6 16.6668 6ZM16.6668 7.77778C16.4217 7.77778 16.2224 7.57847 16.2224 7.33333C16.2224 7.08819 16.4217 6.88889 16.6668 6.88889C16.912 6.88889 17.1113 7.08819 17.1113 7.33333C17.1113 7.57847 16.912 7.77778 16.6668 7.77778Z" fill="#65B32E"/>
<path d="M21.6562 0H2.34375C1.05139 0 0 1.05139 0 2.34375V21.6562C0 22.9486 1.05139 24 2.34375 24H21.6562C22.9486 24 24 22.9486 24 21.6562V2.34375C24 1.05139 22.9486 0 21.6562 0ZM23.0625 21.6562C23.0625 22.4317 22.4317 23.0625 21.6562 23.0625H2.34375C1.5683 23.0625 0.9375 22.4317 0.9375 21.6562V2.34375C0.9375 1.5683 1.5683 0.9375 2.34375 0.9375H21.6562C22.4317 0.9375 23.0625 1.5683 23.0625 2.34375V21.6562Z" fill="#65B32E"/>
</svg>
