<svg width="24" height="24" viewBox="0 0 24 24" fill="none" xmlns="http://www.w3.org/2000/svg">
<path d="M16.8869 12.8238C16.7216 12.6078 16.7574 12.4661 16.8839 12.2496C17.0419 11.9798 17.3563 11.5677 17.6891 11.1316C18.7567 9.73266 19.4456 8.76405 19.303 8.07319C19.2585 7.85829 19.0646 7.70406 18.8399 7.70406C18.8386 7.70406 16.5155 7.7046 15.6581 7.70873C15.45 7.70963 15.2669 7.8389 15.2077 8.03316C15.1046 8.37176 14.7018 9.28741 14.2136 10.1257C13.5805 11.2126 13.1658 11.5532 13.0196 11.613L12.9966 11.606C12.9488 11.5485 12.8658 11.3934 12.8316 10.9918C12.796 10.5716 12.8276 10.0635 12.8582 9.57215C12.894 8.99763 12.925 8.50139 12.851 8.14752C12.8001 8.01807 12.8388 7.59275 12.4318 7.50352C11.8713 7.38054 11.1105 7.33942 10.5681 7.33386C9.28338 7.32147 8.90532 7.5019 8.72008 7.66115C8.59369 7.76977 8.53631 7.93585 8.56989 8.09671C8.60328 8.25758 8.72229 8.389 8.88226 8.44124C9.17027 8.5355 9.27304 8.65507 9.35533 9.21972C9.40755 9.58005 9.43486 10.1851 9.37821 10.725C9.29851 11.4866 9.10865 11.639 9.09001 11.6514C9.04961 11.6385 8.7341 11.5052 8.16434 10.3803C7.67411 9.41254 7.26266 8.24986 7.0704 7.76762C6.99992 7.59077 6.82501 7.47425 6.62998 7.47425H3.80593C3.6502 7.47425 3.50444 7.54894 3.41625 7.6739C3.32824 7.79886 3.30905 7.95811 3.36532 8.09958C4.25003 10.3287 5.26519 12.6119 6.68903 14.2096C8.16231 15.863 9.98081 16.6666 12.2484 16.6666C12.5093 16.6666 12.7207 16.4608 12.7207 16.207C12.7207 15.4141 12.8353 15.1788 13.0141 14.8484C13.1132 14.666 13.21 14.5877 13.2628 14.5762C13.3106 14.5655 13.3949 14.5997 13.4887 14.6678C13.7573 14.8624 13.9706 15.1186 14.1962 15.3897C14.5215 15.7804 14.8579 16.1845 15.392 16.4495C15.6832 16.5933 16.2039 16.6662 16.5028 16.6619H18.8611C19.1296 16.6619 19.3442 16.449 19.3331 16.1879C19.2753 14.8294 17.3186 13.3518 16.8869 12.8238ZM16.4994 15.7474C16.4969 15.7474 16.4945 15.7474 16.4919 15.7474C16.2948 15.752 15.9369 15.6879 15.8203 15.6301C15.4656 15.4542 15.2175 15.1561 14.9302 14.8112C14.6778 14.5078 14.4167 14.1942 14.0531 13.9306C13.3831 13.4446 12.6246 13.5979 12.1787 14.4195C11.9288 14.8805 11.832 15.1843 11.7917 15.7351C10.007 15.6375 8.6031 14.9545 7.4027 13.6073C6.20267 12.2606 5.29213 10.3382 4.49801 8.39349H6.30322C7.00915 10.2436 7.92485 12.5715 9.08854 12.5715C9.37452 12.5715 9.63099 12.4536 9.83044 12.2302C10.5963 11.3726 10.2939 9.11397 10.2906 9.09099C10.2502 8.81289 10.1923 8.5206 10.0518 8.26009C10.6517 8.23711 11.4559 8.27499 11.9277 8.34322C11.9733 8.58254 11.9438 9.05724 11.9152 9.5165C11.8456 10.6347 11.7737 11.7889 12.3901 12.3155C12.4085 12.3313 12.7508 12.5334 12.9621 12.5408C13.3462 12.5557 13.9743 12.3735 14.9902 10.656C15.4044 9.95565 15.7893 9.14916 15.9965 8.62222C16.679 8.62096 17.6353 8.61881 18.2631 8.61935C17.9862 9.21433 17.3738 10.003 16.9306 10.5837C16.5651 11.0627 16.2494 11.4763 16.0631 11.7948C15.7164 12.3873 15.7747 12.915 16.1356 13.3807C16.1374 13.3834 16.1395 13.3859 16.1415 13.3884C16.5897 13.9425 17.753 14.8015 18.2377 15.7474H16.4994Z" fill="#65B32E"/>
<path d="M21.6562 0H2.34375C1.05139 0 0 1.05139 0 2.34375V21.6562C0 22.9486 1.05139 24 2.34375 24H21.6562C22.9486 24 24 22.9486 24 21.6562V2.34375C24 1.05139 22.9486 0 21.6562 0ZM23.0625 21.6562C23.0625 22.4317 22.4317 23.0625 21.6562 23.0625H2.34375C1.5683 23.0625 0.9375 22.4317 0.9375 21.6562V2.34375C0.9375 1.5683 1.5683 0.9375 2.34375 0.9375H21.6562C22.4317 0.9375 23.0625 1.5683 23.0625 2.34375V21.6562Z" fill="#65B32E"/>
</svg>
