<svg width="13" height="10" viewBox="0 0 13 10" fill="none" xmlns="http://www.w3.org/2000/svg">
<path d="M1.15471 5.20337L5.1758 9.22455C5.29059 9.33934 5.44357 9.40234 5.6067 9.40234C5.77 9.40234 5.9229 9.33925 6.03768 9.22455L6.40277 8.85938C6.51746 8.74477 6.58065 8.5917 6.58065 8.42848C6.58065 8.26536 6.51746 8.10712 6.40277 7.99252L4.05692 5.64151L11.5098 5.64151C11.8458 5.64151 12.1113 5.37844 12.1113 5.04232L12.1113 4.52606C12.1113 4.18995 11.8458 3.90036 11.5098 3.90036L4.03031 3.90036L6.40268 1.53622C6.51737 1.42144 6.58056 1.27252 6.58056 1.10931C6.58056 0.946273 6.51737 0.795188 6.40268 0.680494L6.03759 0.316495C5.92281 0.20171 5.76991 0.139158 5.60661 0.139158C5.44348 0.139158 5.2905 0.202525 5.17571 0.31731L1.15462 4.33841C1.03956 4.45355 0.976285 4.60726 0.976738 4.77066C0.976376 4.9346 1.03956 5.0884 1.15471 5.20337Z" fill="#85CE52"/>
</svg>
