<svg width="12" height="10" viewBox="0 0 12 10" fill="none" xmlns="http://www.w3.org/2000/svg">
<path d="M10.9566 4.19898L6.93553 0.17779C6.82074 0.063005 6.66776 0 6.50463 0C6.34132 0 6.18843 0.0630955 6.07364 0.17779L5.70856 0.542966C5.59386 0.65757 5.53068 0.810646 5.53068 0.973862C5.53068 1.13699 5.59386 1.29522 5.70856 1.40983L8.05441 3.76084L0.601535 3.76084C0.265508 3.76084 0 4.0239 0 4.36002L0 4.87628C0 5.2124 0.265508 5.50199 0.601535 5.50199L8.08102 5.50199L5.70865 7.86612C5.59395 7.98091 5.53077 8.12982 5.53077 8.29304C5.53077 8.45607 5.59395 8.60715 5.70865 8.72185L6.07373 9.08585C6.18852 9.20063 6.34141 9.26319 6.50472 9.26319C6.66785 9.26319 6.82083 9.19982 6.93562 9.08503L10.9567 5.06394C11.0718 4.94879 11.135 4.79508 11.1346 4.63168C11.135 4.46774 11.0718 4.31394 10.9566 4.19898Z" fill="#85CE52"/>
</svg>
