<svg width="20" height="16" viewBox="0 0 20 16" fill="none" xmlns="http://www.w3.org/2000/svg">
<path d="M18.8456 7.22224L11.9293 0.305799C11.7319 0.108369 11.4688 0 11.1882 0C10.9073 0 10.6443 0.108524 10.4469 0.305799L9.81897 0.933901C9.62169 1.13102 9.51301 1.39431 9.51301 1.67504C9.51301 1.95562 9.62169 2.22778 9.81897 2.4249L13.8538 6.46864L1.03488 6.46864C0.456918 6.46864 0.000244141 6.92111 0.000244141 7.49923L0.000244141 8.3872C0.000244141 8.96532 0.456918 9.46342 1.03488 9.46342L13.8996 9.46342L9.81912 13.5297C9.62185 13.7272 9.51317 13.9833 9.51317 14.264C9.51317 14.5444 9.62185 14.8043 9.81912 15.0016L10.4471 15.6277C10.6445 15.8251 10.9075 15.9327 11.1884 15.9327C11.4689 15.9327 11.7321 15.8237 11.9295 15.6263L18.8458 8.70997C19.0437 8.51192 19.1525 8.24754 19.1517 7.9665C19.1524 7.68452 19.0437 7.41998 18.8456 7.22224Z" fill="white" fill-opacity="0.4"/>
</svg>
