<svg width="20" height="16" viewBox="0 0 20 16" fill="none" xmlns="http://www.w3.org/2000/svg">
<path d="M0.306224 8.71038L7.22251 15.6268C7.41994 15.8242 7.68307 15.9326 7.96365 15.9326C8.24453 15.9326 8.50751 15.8241 8.70494 15.6268L9.33289 14.9987C9.53016 14.8016 9.63884 14.5383 9.63884 14.2576C9.63884 13.977 9.53016 13.7048 9.33289 13.5077L5.29803 9.46397L18.117 9.46398C18.6949 9.46398 19.1516 9.01151 19.1516 8.43338L19.1516 7.54541C19.1516 6.96729 18.6949 6.4692 18.117 6.4692L5.25225 6.4692L9.33274 2.40289C9.53001 2.20546 9.63869 1.94933 9.63869 1.6686C9.63869 1.38818 9.53001 1.12831 9.33274 0.931035L8.70479 0.304957C8.50736 0.107527 8.24438 -6.29424e-05 7.96349 -6.29669e-05C7.68292 -6.29915e-05 7.41978 0.108928 7.22235 0.306358L0.306069 7.22264C0.108172 7.4207 -0.000663036 7.68508 0.000115137 7.96612C-0.00050859 8.2481 0.108172 8.51263 0.306224 8.71038Z" fill="white" fill-opacity="0.4"/>
</svg>
