<svg width="67" height="67" viewBox="0 0 67 67" fill="none" xmlns="http://www.w3.org/2000/svg">
<g filter="url(#filter0_dd)">
<rect x="11" y="11" width="43" height="43" rx="21.5" fill="url(#paint0_linear)"/>
</g>
<path d="M34 20.6093C33.448 20.6093 33 20.1613 33 19.6093V17C33 16.448 33.448 16 34 16C34.552 16 35 16.448 35 17V19.6093C35 20.1613 34.552 20.6093 34 20.6093Z" fill="#65B32E"/>
<path d="M42.7614 24.2389C42.5054 24.2389 42.2494 24.1416 42.0547 23.9456C41.6641 23.5549 41.6641 22.9216 42.0547 22.5309L43.9001 20.6856C44.2907 20.2949 44.9241 20.2949 45.3147 20.6856C45.7054 21.0762 45.7054 21.7096 45.3147 22.1002L43.4694 23.9456C43.2734 24.1402 43.0174 24.2389 42.7614 24.2389Z" fill="#65B32E"/>
<path d="M49 33H46.3906C45.8386 33 45.3906 32.552 45.3906 32C45.3906 31.448 45.8386 31 46.3906 31H49C49.552 31 50 31.448 50 32C50 32.552 49.552 33 49 33Z" fill="#65B32E"/>
<path d="M44.6067 43.6066C44.3507 43.6066 44.0947 43.5093 43.9001 43.3133L42.0547 41.4679C41.6641 41.0773 41.6641 40.4439 42.0547 40.0533C42.4454 39.6626 43.0787 39.6626 43.4694 40.0533L45.3147 41.8986C45.7054 42.2893 45.7054 42.9226 45.3147 43.3133C45.1187 43.5093 44.8627 43.6066 44.6067 43.6066Z" fill="#65B32E"/>
<path d="M23.3932 43.6066C23.1372 43.6066 22.8812 43.5093 22.6866 43.3133C22.2959 42.9226 22.2959 42.2893 22.6866 41.8986L24.5319 40.0533C24.9226 39.6626 25.5559 39.6626 25.9466 40.0533C26.3372 40.4439 26.3372 41.0773 25.9466 41.4679L24.1012 43.3133C23.9052 43.5093 23.6492 43.6066 23.3932 43.6066Z" fill="#65B32E"/>
<path d="M21.6093 33H19C18.448 33 18 32.552 18 32C18 31.448 18.448 31 19 31H21.6093C22.1613 31 22.6093 31.448 22.6093 32C22.6093 32.552 22.1613 33 21.6093 33Z" fill="#65B32E"/>
<path d="M25.2386 24.2389C24.9826 24.2389 24.7266 24.1416 24.5319 23.9456L22.6866 22.1002C22.2959 21.7096 22.2959 21.0762 22.6866 20.6856C23.0772 20.2949 23.7106 20.2949 24.1012 20.6856L25.9466 22.5309C26.3372 22.9216 26.3372 23.5549 25.9466 23.9456C25.7492 24.1402 25.4946 24.2389 25.2386 24.2389Z" fill="#65B32E"/>
<path d="M38 44V45.6667C38 46.9467 36.9467 48 35.6667 48H32.3333C31.2133 48 30 47.1467 30 45.28V44H38Z" fill="#65B32E"/>
<path d="M39.8801 24.7466C37.6934 22.9733 34.8134 22.28 32.0001 22.88C28.4668 23.6133 25.6001 26.4933 24.8668 30.0266C24.1201 33.6533 25.4801 37.2533 28.3868 39.4533C29.1734 40.04 29.7201 40.9466 29.9068 42V42.0133C29.9334 42 29.9734 42 30.0001 42H38.0001C38.0268 42 38.0401 42 38.0668 42.0133V42C38.2534 40.9866 38.8534 40.0533 39.7734 39.3333C42.0268 37.5466 43.3334 34.88 43.3334 32C43.3334 29.1733 42.0801 26.5333 39.8801 24.7466ZM39.0001 32.6666C38.4534 32.6666 38.0001 32.2133 38.0001 31.6666C38.0001 29.64 36.3601 28 34.3334 28C33.7868 28 33.3334 27.5466 33.3334 27C33.3334 26.4533 33.7868 26 34.3334 26C37.4534 26 40.0001 28.5466 40.0001 31.6666C40.0001 32.2133 39.5468 32.6666 39.0001 32.6666Z" fill="#65B32E"/>
<path d="M29.9067 42H30.0001C29.9734 42 29.9334 42 29.9067 42.0133V42Z" fill="#65B32E"/>
<path d="M38.0667 42V42.0133C38.04 42 38.0267 42 38 42H38.0667Z" fill="#65B32E"/>
<defs>
<filter id="filter0_dd" x="0" y="0" width="67" height="67" filterUnits="userSpaceOnUse" color-interpolation-filters="sRGB">
<feFlood flood-opacity="0" result="BackgroundImageFix"/>
<feColorMatrix in="SourceAlpha" type="matrix" values="0 0 0 0 0 0 0 0 0 0 0 0 0 0 0 0 0 0 127 0"/>
<feOffset dx="4" dy="4"/>
<feGaussianBlur stdDeviation="4.5"/>
<feColorMatrix type="matrix" values="0 0 0 0 0.759604 0 0 0 0 0.841667 0 0 0 0 0.704896 0 0 0 1 0"/>
<feBlend mode="normal" in2="BackgroundImageFix" result="effect1_dropShadow"/>
<feColorMatrix in="SourceAlpha" type="matrix" values="0 0 0 0 0 0 0 0 0 0 0 0 0 0 0 0 0 0 127 0"/>
<feOffset dx="-3" dy="-3"/>
<feGaussianBlur stdDeviation="4"/>
<feColorMatrix type="matrix" values="0 0 0 0 1 0 0 0 0 1 0 0 0 0 1 0 0 0 0.42 0"/>
<feBlend mode="normal" in2="effect1_dropShadow" result="effect2_dropShadow"/>
<feBlend mode="normal" in="SourceGraphic" in2="effect2_dropShadow" result="shape"/>
</filter>
<linearGradient id="paint0_linear" x1="19.0625" y1="19.0625" x2="50.0832" y2="47.0063" gradientUnits="userSpaceOnUse">
<stop stop-color="#E6F4DC"/>
<stop offset="1" stop-color="#D1E6C2"/>
</linearGradient>
</defs>
</svg>
