<svg width="32" height="32" viewBox="0 0 32 32" fill="none" xmlns="http://www.w3.org/2000/svg">
<path d="M16 4.60933C15.448 4.60933 15 4.16133 15 3.60933V1C15 0.448 15.448 0 16 0C16.552 0 17 0.448 17 1V3.60933C17 4.16133 16.552 4.60933 16 4.60933Z" fill="#65B32E"/>
<path d="M24.7614 8.23891C24.5054 8.23891 24.2494 8.14158 24.0547 7.94558C23.6641 7.55491 23.6641 6.92158 24.0547 6.53091L25.9001 4.68558C26.2907 4.29491 26.9241 4.29491 27.3147 4.68558C27.7054 5.07624 27.7054 5.70958 27.3147 6.10024L25.4694 7.94558C25.2734 8.14025 25.0174 8.23891 24.7614 8.23891Z" fill="#65B32E"/>
<path d="M31 17H28.3906C27.8386 17 27.3906 16.552 27.3906 16C27.3906 15.448 27.8386 15 28.3906 15H31C31.552 15 32 15.448 32 16C32 16.552 31.552 17 31 17Z" fill="#65B32E"/>
<path d="M26.6067 27.6066C26.3507 27.6066 26.0947 27.5093 25.9001 27.3133L24.0547 25.4679C23.6641 25.0773 23.6641 24.4439 24.0547 24.0533C24.4454 23.6626 25.0787 23.6626 25.4694 24.0533L27.3147 25.8986C27.7054 26.2893 27.7054 26.9226 27.3147 27.3133C27.1187 27.5093 26.8627 27.6066 26.6067 27.6066Z" fill="#65B32E"/>
<path d="M5.39322 27.6066C5.13722 27.6066 4.88122 27.5093 4.68655 27.3133C4.29589 26.9226 4.29589 26.2893 4.68655 25.8986L6.53189 24.0533C6.92255 23.6626 7.55589 23.6626 7.94655 24.0533C8.33722 24.4439 8.33722 25.0773 7.94655 25.4679L6.10122 27.3133C5.90522 27.5093 5.64922 27.6066 5.39322 27.6066Z" fill="#65B32E"/>
<path d="M3.60933 17H1C0.448 17 0 16.552 0 16C0 15.448 0.448 15 1 15H3.60933C4.16133 15 4.60933 15.448 4.60933 16C4.60933 16.552 4.16133 17 3.60933 17Z" fill="#65B32E"/>
<path d="M7.23855 8.23891C6.98255 8.23891 6.72655 8.14158 6.53189 7.94558L4.68655 6.10024C4.29589 5.70958 4.29589 5.07624 4.68655 4.68558C5.07722 4.29491 5.71055 4.29491 6.10122 4.68558L7.94655 6.53091C8.33722 6.92158 8.33722 7.55491 7.94655 7.94558C7.74922 8.14025 7.49455 8.23891 7.23855 8.23891Z" fill="#65B32E"/>
<path d="M20 28V29.6667C20 30.9467 18.9467 32 17.6667 32H14.3333C13.2133 32 12 31.1467 12 29.28V28H20Z" fill="#65B32E"/>
<path d="M21.8801 8.74663C19.6934 6.9733 16.8134 6.27996 14.0001 6.87996C10.4668 7.6133 7.60009 10.4933 6.86675 14.0266C6.12009 17.6533 7.48009 21.2533 10.3868 23.4533C11.1734 24.04 11.7201 24.9466 11.9068 26V26.0133C11.9334 26 11.9734 26 12.0001 26H20.0001C20.0268 26 20.0401 26 20.0668 26.0133V26C20.2534 24.9866 20.8534 24.0533 21.7734 23.3333C24.0268 21.5466 25.3334 18.88 25.3334 16C25.3334 13.1733 24.0801 10.5333 21.8801 8.74663ZM21.0001 16.6666C20.4534 16.6666 20.0001 16.2133 20.0001 15.6666C20.0001 13.64 18.3601 12 16.3334 12C15.7868 12 15.3334 11.5466 15.3334 11C15.3334 10.4533 15.7868 9.99996 16.3334 9.99996C19.4534 9.99996 22.0001 12.5466 22.0001 15.6666C22.0001 16.2133 21.5468 16.6666 21.0001 16.6666Z" fill="#65B32E"/>
<path d="M11.9067 26H12.0001C11.9734 26 11.9334 26 11.9067 26.0133V26Z" fill="#65B32E"/>
<path d="M20.0667 26V26.0133C20.04 26 20.0267 26 20 26H20.0667Z" fill="#65B32E"/>
</svg>
