<svg width="93" height="93" viewBox="0 0 93 93" fill="none" xmlns="http://www.w3.org/2000/svg">
<g filter="url(#filter0_ddii)">
<rect x="24" y="24" width="53" height="53" rx="26.5" fill="url(#paint0_linear)" fill-opacity="0.3"/>
</g>
<path d="M46.515 52.03C48.195 50.7233 49.5367 49.2533 50.54 47.62C51.5667 45.9867 52.08 44.3067 52.08 42.58C52.08 40.9467 51.4617 40.13 50.225 40.13C49.665 40.13 49.2217 40.2933 48.895 40.62C48.5917 40.9467 48.44 41.4017 48.44 41.985C48.44 42.545 48.58 43.1867 48.86 43.91L43.715 45.1C43.3183 43.9567 43.12 42.86 43.12 41.81C43.12 39.7567 43.75 38.1583 45.01 37.015C46.27 35.8483 48.055 35.265 50.365 35.265C52.6983 35.265 54.5067 35.8833 55.79 37.12C57.0733 38.3567 57.715 40.1183 57.715 42.405C57.715 44.4817 57.2017 46.4183 56.175 48.215C55.1483 50.0117 53.655 51.645 51.695 53.115V56.545H46.515V52.03ZM46.34 58.575H51.905V64H46.34V58.575Z" fill="url(#paint1_linear)"/>
<defs>
<filter id="filter0_ddii" x="0" y="0" width="93" height="93" filterUnits="userSpaceOnUse" color-interpolation-filters="sRGB">
<feFlood flood-opacity="0" result="BackgroundImageFix"/>
<feColorMatrix in="SourceAlpha" type="matrix" values="0 0 0 0 0 0 0 0 0 0 0 0 0 0 0 0 0 0 127 0"/>
<feOffset dx="4" dy="4"/>
<feGaussianBlur stdDeviation="2.5"/>
<feColorMatrix type="matrix" values="0 0 0 0 0.203332 0 0 0 0 0.420833 0 0 0 0 0.0543576 0 0 0 0.8 0"/>
<feBlend mode="normal" in2="BackgroundImageFix" result="effect1_dropShadow"/>
<feColorMatrix in="SourceAlpha" type="matrix" values="0 0 0 0 0 0 0 0 0 0 0 0 0 0 0 0 0 0 127 0"/>
<feOffset dx="-4" dy="-4"/>
<feGaussianBlur stdDeviation="10"/>
<feColorMatrix type="matrix" values="0 0 0 0 0.459261 0 0 0 0 0.766667 0 0 0 0 0.252361 0 0 0 0.99 0"/>
<feBlend mode="normal" in2="effect1_dropShadow" result="effect2_dropShadow"/>
<feBlend mode="normal" in="SourceGraphic" in2="effect2_dropShadow" result="shape"/>
<feColorMatrix in="SourceAlpha" type="matrix" values="0 0 0 0 0 0 0 0 0 0 0 0 0 0 0 0 0 0 127 0" result="hardAlpha"/>
<feOffset dx="5" dy="5"/>
<feGaussianBlur stdDeviation="6"/>
<feComposite in2="hardAlpha" operator="arithmetic" k2="-1" k3="1"/>
<feColorMatrix type="matrix" values="0 0 0 0 0.433843 0 0 0 0 0.720833 0 0 0 0 0.237274 0 0 0 1 0"/>
<feBlend mode="normal" in2="shape" result="effect3_innerShadow"/>
<feColorMatrix in="SourceAlpha" type="matrix" values="0 0 0 0 0 0 0 0 0 0 0 0 0 0 0 0 0 0 127 0" result="hardAlpha"/>
<feOffset dx="-5" dy="-5"/>
<feGaussianBlur stdDeviation="3.5"/>
<feComposite in2="hardAlpha" operator="arithmetic" k2="-1" k3="1"/>
<feColorMatrix type="matrix" values="0 0 0 0 0.243234 0 0 0 0 0.525 0 0 0 0 0.0525 0 0 0 1 0"/>
<feBlend mode="normal" in2="effect3_innerShadow" result="effect4_innerShadow"/>
</filter>
<linearGradient id="paint0_linear" x1="33.9375" y1="33.9375" x2="72.1723" y2="68.3798" gradientUnits="userSpaceOnUse">
<stop stop-color="#4F981B"/>
<stop offset="1" stop-color="#448715"/>
</linearGradient>
<linearGradient id="paint1_linear" x1="70.5" y1="68" x2="36" y2="30" gradientUnits="userSpaceOnUse">
<stop stop-color="white"/>
<stop offset="1" stop-color="white" stop-opacity="0.67"/>
</linearGradient>
</defs>
</svg>
