<svg width="20" height="19" viewBox="0 0 20 19" fill="none" xmlns="http://www.w3.org/2000/svg">
<path fill-rule="evenodd" clip-rule="evenodd" d="M16.6324 2.72484C14.8783 0.968628 12.5454 0.00102997 10.0601 0C4.93885 0 0.770912 4.16782 0.768852 9.29043C0.768166 10.928 1.19595 12.5265 2.00905 13.9355L0.690918 18.75L5.61634 17.458C6.97349 18.1983 8.5014 18.5884 10.0563 18.5889H10.0602C15.1809 18.5889 19.3492 14.4207 19.3512 9.29787C19.3522 6.81518 18.3867 4.48093 16.6324 2.72484ZM10.0601 17.0198H10.0569C8.67123 17.0192 7.31224 16.6468 6.1264 15.9433L5.84454 15.7759L2.92171 16.5427L3.70186 13.693L3.51818 13.4008C2.74513 12.1712 2.33692 10.7501 2.33761 9.291C2.33921 5.03323 5.80357 1.56921 10.0632 1.56921C12.1259 1.5699 14.0648 2.37419 15.5228 3.83388C16.9808 5.29358 17.7832 7.23381 17.7826 9.29729C17.7807 13.5554 14.3166 17.0198 10.0601 17.0198ZM14.296 11.236C14.0639 11.1198 12.9225 10.5583 12.7096 10.4807C12.497 10.4033 12.342 10.3647 12.1874 10.597C12.0326 10.8293 11.5878 11.3523 11.4523 11.5071C11.3168 11.6621 11.1815 11.6816 10.9493 11.5653C10.7171 11.4491 9.9691 11.2039 9.0823 10.413C8.39222 9.7974 7.92633 9.03717 7.79083 8.80485C7.65556 8.57231 7.78969 8.45879 7.89268 8.33107C8.144 8.01899 8.39565 7.6918 8.47301 7.53696C8.55049 7.38201 8.51169 7.2464 8.45356 7.13024C8.39565 7.01408 7.93137 5.87139 7.73796 5.40642C7.54936 4.95392 7.35813 5.01503 7.21554 5.00793C7.08027 5.00118 6.92543 4.99981 6.77059 4.99981C6.61587 4.99981 6.36433 5.05783 6.15147 5.29037C5.93872 5.5228 5.33905 6.08436 5.33905 7.22706C5.33905 8.36975 6.17092 9.47365 6.28696 9.6286C6.40301 9.78355 7.92404 12.1284 10.2528 13.1339C10.8067 13.3733 11.2391 13.516 11.5763 13.623C12.1325 13.7997 12.6384 13.7748 13.0385 13.7151C13.4846 13.6483 14.4119 13.1534 14.6056 12.6112C14.799 12.0688 14.799 11.6041 14.7408 11.5071C14.6829 11.4103 14.5281 11.3523 14.296 11.236Z" fill="#65B32E"/>
</svg>
